<svg xmlns="http://www.w3.org/2000/svg" xmlns:xlink="http://www.w3.org/1999/xlink" width="1500" zoomAndPan="magnify" viewBox="0 0 1125 809.999993" height="1080" preserveAspectRatio="xMidYMid meet" version="1.2"><defs><clipPath id="02670d9a89"><path d="M 559.625 275.105469 L 1007 275.105469 L 1007 585.140625 L 559.625 585.140625 Z M 559.625 275.105469 "/></clipPath><clipPath id="3554d33a16"><path d="M 568.625 275.105469 L 997.898438 275.105469 C 1002.867188 275.105469 1006.898438 279.136719 1006.898438 284.105469 L 1006.898438 576.140625 C 1006.898438 581.109375 1002.867188 585.140625 997.898438 585.140625 L 568.625 585.140625 C 563.65625 585.140625 559.625 581.109375 559.625 576.140625 L 559.625 284.105469 C 559.625 279.136719 563.65625 275.105469 568.625 275.105469 Z M 568.625 275.105469 "/></clipPath><clipPath id="f39ba18962"><path d="M 446 33.046875 L 1119.878906 33.046875 L 1119.878906 389.601562 L 446 389.601562 Z M 446 33.046875 "/></clipPath><clipPath id="803afab17d"><path d="M 800.371094 40.910156 L 1116.863281 371.71875 C 1119.792969 374.777344 1120.609375 379.289062 1118.949219 383.179688 C 1117.285156 387.074219 1113.457031 389.601562 1109.222656 389.601562 L 457.300781 389.601562 C 453.066406 389.601562 449.238281 387.074219 447.574219 383.179688 C 445.914062 379.289062 446.730469 374.777344 449.660156 371.71875 L 766.152344 40.910156 C 770.617188 36.238281 776.800781 33.597656 783.261719 33.597656 C 789.722656 33.597656 795.90625 36.238281 800.371094 40.910156 Z M 800.371094 40.910156 "/></clipPath><clipPath id="3ef372d5d5"><path d="M 675.292969 432.910156 L 783.261719 432.910156 L 783.261719 585.160156 L 675.292969 585.160156 Z M 675.292969 432.910156 "/></clipPath><clipPath id="07a10e7478"><path d="M 679.792969 432.910156 L 778.761719 432.910156 C 779.957031 432.910156 781.101562 433.382812 781.945312 434.230469 C 782.789062 435.074219 783.261719 436.21875 783.261719 437.410156 L 783.261719 580.640625 C 783.261719 581.832031 782.789062 582.976562 781.945312 583.820312 C 781.101562 584.664062 779.957031 585.140625 778.761719 585.140625 L 679.792969 585.140625 C 678.601562 585.140625 677.457031 584.664062 676.613281 583.820312 C 675.769531 582.976562 675.292969 581.832031 675.292969 580.640625 L 675.292969 437.410156 C 675.292969 436.21875 675.769531 435.074219 676.613281 434.230469 C 677.457031 433.382812 678.601562 432.910156 679.792969 432.910156 Z M 679.792969 432.910156 "/></clipPath><clipPath id="b83daaedd6"><path d="M 675.292969 509.023438 L 783.261719 509.023438 L 783.261719 585.140625 L 675.292969 585.140625 Z M 675.292969 509.023438 "/></clipPath><clipPath id="a36ad4394f"><path d="M 380.160156 332.851562 L 744 332.851562 L 744 585.140625 L 380.160156 585.140625 Z M 380.160156 332.851562 "/></clipPath><clipPath id="2d298cd392"><path d="M 389.160156 332.851562 L 735.128906 332.851562 C 737.515625 332.851562 739.804688 333.796875 741.492188 335.488281 C 743.179688 337.175781 744.128906 339.464844 744.128906 341.851562 L 744.128906 576.140625 C 744.128906 578.527344 743.179688 580.816406 741.492188 582.503906 C 739.804688 584.191406 737.515625 585.140625 735.128906 585.140625 L 389.160156 585.140625 C 386.773438 585.140625 384.484375 584.191406 382.796875 582.503906 C 381.109375 580.816406 380.160156 578.527344 380.160156 576.140625 L 380.160156 341.851562 C 380.160156 339.464844 381.109375 337.175781 382.796875 335.488281 C 384.484375 333.796875 386.773438 332.851562 389.160156 332.851562 Z M 389.160156 332.851562 "/></clipPath><clipPath id="a0e1e4f3d9"><path d="M 290 137.042969 L 834.902344 137.042969 L 834.902344 426.019531 L 290 426.019531 Z M 290 137.042969 "/></clipPath><clipPath id="faea981fbd"><path d="M 578.21875 144.519531 L 831.464844 409.21875 C 834.214844 412.09375 834.984375 416.332031 833.421875 419.988281 C 831.859375 423.648438 828.265625 426.019531 824.285156 426.019531 L 300.003906 426.019531 C 296.023438 426.019531 292.429688 423.648438 290.867188 419.988281 C 289.304688 416.332031 290.074219 412.09375 292.824219 409.21875 L 546.070312 144.519531 C 550.269531 140.132812 556.074219 137.652344 562.144531 137.652344 C 568.214844 137.652344 574.019531 140.132812 578.21875 144.519531 Z M 578.21875 144.519531 "/></clipPath><clipPath id="36f5c1446d"><path d="M 474.285156 461.261719 L 562.144531 461.261719 L 562.144531 585.15625 L 474.285156 585.15625 Z M 474.285156 461.261719 "/></clipPath><clipPath id="3d464335fb"><path d="M 478.785156 461.261719 L 557.644531 461.261719 C 558.839844 461.261719 559.984375 461.738281 560.828125 462.582031 C 561.671875 463.425781 562.144531 464.570312 562.144531 465.761719 L 562.144531 580.640625 C 562.144531 581.832031 561.671875 582.976562 560.828125 583.820312 C 559.984375 584.664062 558.839844 585.140625 557.644531 585.140625 L 478.785156 585.140625 C 477.59375 585.140625 476.449219 584.664062 475.605469 583.820312 C 474.761719 582.976562 474.285156 581.832031 474.285156 580.640625 L 474.285156 465.761719 C 474.285156 464.570312 474.761719 463.425781 475.605469 462.582031 C 476.449219 461.738281 477.59375 461.261719 478.785156 461.261719 Z M 478.785156 461.261719 "/></clipPath><clipPath id="0ef4423687"><path d="M 474.285156 523.203125 L 562.144531 523.203125 L 562.144531 585.140625 L 474.285156 585.140625 Z M 474.285156 523.203125 "/></clipPath><clipPath id="b5dd316625"><path d="M 106.269531 303.976562 L 512 303.976562 L 512 585.140625 L 106.269531 585.140625 Z M 106.269531 303.976562 "/></clipPath><clipPath id="52af160e64"><path d="M 115.269531 303.976562 L 502.886719 303.976562 C 505.273438 303.976562 507.566406 304.925781 509.253906 306.613281 C 510.941406 308.300781 511.886719 310.589844 511.886719 312.976562 L 511.886719 576.140625 C 511.886719 578.527344 510.941406 580.816406 509.253906 582.503906 C 507.566406 584.191406 505.273438 585.140625 502.886719 585.140625 L 115.269531 585.140625 C 112.878906 585.140625 110.589844 584.191406 108.902344 582.503906 C 107.214844 580.816406 106.269531 578.527344 106.269531 576.140625 L 106.269531 312.976562 C 106.269531 310.589844 107.214844 308.300781 108.902344 306.613281 C 110.589844 304.925781 112.878906 303.976562 115.269531 303.976562 Z M 115.269531 303.976562 "/></clipPath><clipPath id="03b042b0b4"><path d="M 4.011719 85 L 614 85 L 614 407.8125 L 4.011719 407.8125 Z M 4.011719 85 "/></clipPath><clipPath id="c853ab2296"><path d="M 325.152344 92.171875 L 611.058594 391.011719 C 613.808594 393.886719 614.578125 398.121094 613.015625 401.78125 C 611.453125 405.4375 607.859375 407.8125 603.878906 407.8125 L 14.277344 407.8125 C 10.296875 407.8125 6.703125 405.4375 5.140625 401.78125 C 3.578125 398.121094 4.347656 393.886719 7.097656 391.011719 L 293.003906 92.171875 C 297.203125 87.785156 303.007812 85.304688 309.078125 85.304688 C 315.148438 85.304688 320.953125 87.785156 325.152344 92.171875 Z M 325.152344 92.171875 "/></clipPath><clipPath id="5ab5f78fd1"><path d="M 211.164062 447.085938 L 309.078125 447.085938 L 309.078125 585.160156 L 211.164062 585.160156 Z M 211.164062 447.085938 "/></clipPath><clipPath id="92f0e51ba2"><path d="M 215.664062 447.085938 L 304.578125 447.085938 C 305.773438 447.085938 306.917969 447.5625 307.761719 448.40625 C 308.605469 449.25 309.078125 450.394531 309.078125 451.585938 L 309.078125 580.640625 C 309.078125 581.832031 308.605469 582.976562 307.761719 583.820312 C 306.917969 584.664062 305.773438 585.140625 304.578125 585.140625 L 215.664062 585.140625 C 214.472656 585.140625 213.328125 584.664062 212.484375 583.820312 C 211.640625 582.976562 211.164062 581.832031 211.164062 580.640625 L 211.164062 451.585938 C 211.164062 450.394531 211.640625 449.25 212.484375 448.40625 C 213.328125 447.5625 214.472656 447.085938 215.664062 447.085938 Z M 215.664062 447.085938 "/></clipPath><clipPath id="6f466bf681"><path d="M 211.164062 516.113281 L 309.078125 516.113281 L 309.078125 585.140625 L 211.164062 585.140625 Z M 211.164062 516.113281 "/></clipPath></defs><g id="1e10bf6fea"><g style="fill:#ffffff;fill-opacity:1;"><g transform="translate(148.325332, 710.928328)"><path style="stroke:none" d="M 72.75 0 L 72.75 -40.859375 L 24.640625 -40.859375 L 24.640625 0 L 13.234375 0 L 13.234375 -90.78125 L 24.640625 -90.78125 L 24.640625 -51.75 L 72.75 -51.75 L 72.75 -90.78125 L 84.171875 -90.78125 L 84.171875 0 Z M 72.75 0 "/></g></g><g style="fill:#ffffff;fill-opacity:1;"><g transform="translate(245.710464, 710.928328)"><path style="stroke:none" d="M 54.46875 1.6875 C 45.300781 1.6875 37.171875 -0.320312 30.078125 -4.34375 C 22.992188 -8.363281 17.460938 -13.914062 13.484375 -21 C 9.503906 -28.09375 7.515625 -36.222656 7.515625 -45.390625 C 7.515625 -54.640625 9.503906 -62.785156 13.484375 -69.828125 C 17.460938 -76.878906 22.992188 -82.414062 30.078125 -86.4375 C 37.171875 -90.457031 45.300781 -92.46875 54.46875 -92.46875 C 63.71875 -92.46875 71.863281 -90.457031 78.90625 -86.4375 C 85.957031 -82.414062 91.492188 -76.878906 95.515625 -69.828125 C 99.535156 -62.785156 101.546875 -54.640625 101.546875 -45.390625 C 101.546875 -36.222656 99.535156 -28.09375 95.515625 -21 C 91.492188 -13.914062 85.957031 -8.363281 78.90625 -4.34375 C 71.863281 -0.320312 63.71875 1.6875 54.46875 1.6875 Z M 19.1875 -45.390625 C 19.1875 -38.390625 20.675781 -32.207031 23.65625 -26.84375 C 26.644531 -21.488281 30.796875 -17.296875 36.109375 -14.265625 C 41.429688 -11.242188 47.550781 -9.734375 54.46875 -9.734375 C 61.46875 -9.734375 67.601562 -11.242188 72.875 -14.265625 C 78.15625 -17.296875 82.285156 -21.488281 85.265625 -26.84375 C 88.253906 -32.207031 89.75 -38.390625 89.75 -45.390625 C 89.75 -52.484375 88.253906 -58.6875 85.265625 -64 C 82.285156 -69.320312 78.15625 -73.492188 72.875 -76.515625 C 67.601562 -79.546875 61.46875 -81.0625 54.46875 -81.0625 C 47.550781 -81.0625 41.429688 -79.546875 36.109375 -76.515625 C 30.796875 -73.492188 26.644531 -69.320312 23.65625 -64 C 20.675781 -58.6875 19.1875 -52.484375 19.1875 -45.390625 Z M 19.1875 -45.390625 "/></g></g><g style="fill:#ffffff;fill-opacity:1;"><g transform="translate(354.6366, 710.928328)"><path style="stroke:none" d="M 13.234375 0 L 13.234375 -90.78125 L 23.859375 -90.78125 L 59.53125 -36.96875 L 94.9375 -90.78125 L 105.5625 -90.78125 L 105.5625 0 L 94.15625 0 L 94.15625 -69.390625 L 64.0625 -24.125 L 54.734375 -24.125 L 24.640625 -69.515625 L 24.640625 0 Z M 13.234375 0 "/></g></g><g style="fill:#ffffff;fill-opacity:1;"><g transform="translate(473.417952, 710.928328)"><path style="stroke:none" d="M 13.234375 0 L 13.234375 -90.78125 L 68.34375 -90.78125 L 68.34375 -80.140625 L 24.640625 -80.140625 L 24.640625 -51.484375 L 65.109375 -51.484375 L 65.109375 -40.984375 L 24.640625 -40.984375 L 24.640625 -10.640625 L 69.765625 -10.640625 L 69.765625 0 Z M 13.234375 0 "/></g></g><g style="fill:#ffffff;fill-opacity:1;"><g transform="translate(551.611331, 710.928328)"><path style="stroke:none" d="M 13.234375 0 L 13.234375 -90.78125 L 47.859375 -90.78125 C 54.171875 -90.78125 59.660156 -89.59375 64.328125 -87.21875 C 68.992188 -84.84375 72.625 -81.492188 75.21875 -77.171875 C 77.8125 -72.847656 79.109375 -67.660156 79.109375 -61.609375 C 79.109375 -54.253906 77.207031 -48.175781 73.40625 -43.375 C 69.601562 -38.582031 64.375 -35.363281 57.71875 -33.71875 L 80.53125 0 L 66.796875 0 L 44.609375 -32.546875 L 24.640625 -32.546875 L 24.640625 0 Z M 24.640625 -43.453125 L 46.5625 -43.453125 C 53.21875 -43.453125 58.359375 -45.023438 61.984375 -48.171875 C 65.617188 -51.328125 67.4375 -55.804688 67.4375 -61.609375 C 67.4375 -67.398438 65.617188 -71.894531 61.984375 -75.09375 C 58.359375 -78.289062 53.21875 -79.890625 46.5625 -79.890625 L 24.640625 -79.890625 Z M 24.640625 -43.453125 "/></g></g><g style="fill:#ffffff;fill-opacity:1;"><g transform="translate(639.91929, 710.928328)"><path style="stroke:none" d="M 54.46875 1.6875 C 45.300781 1.6875 37.171875 -0.320312 30.078125 -4.34375 C 22.992188 -8.363281 17.460938 -13.914062 13.484375 -21 C 9.503906 -28.09375 7.515625 -36.222656 7.515625 -45.390625 C 7.515625 -54.640625 9.503906 -62.785156 13.484375 -69.828125 C 17.460938 -76.878906 22.992188 -82.414062 30.078125 -86.4375 C 37.171875 -90.457031 45.300781 -92.46875 54.46875 -92.46875 C 63.71875 -92.46875 71.863281 -90.457031 78.90625 -86.4375 C 85.957031 -82.414062 91.492188 -76.878906 95.515625 -69.828125 C 99.535156 -62.785156 101.546875 -54.640625 101.546875 -45.390625 C 101.546875 -36.222656 99.535156 -28.09375 95.515625 -21 C 91.492188 -13.914062 85.957031 -8.363281 78.90625 -4.34375 C 71.863281 -0.320312 63.71875 1.6875 54.46875 1.6875 Z M 19.1875 -45.390625 C 19.1875 -38.390625 20.675781 -32.207031 23.65625 -26.84375 C 26.644531 -21.488281 30.796875 -17.296875 36.109375 -14.265625 C 41.429688 -11.242188 47.550781 -9.734375 54.46875 -9.734375 C 61.46875 -9.734375 67.601562 -11.242188 72.875 -14.265625 C 78.15625 -17.296875 82.285156 -21.488281 85.265625 -26.84375 C 88.253906 -32.207031 89.75 -38.390625 89.75 -45.390625 C 89.75 -52.484375 88.253906 -58.6875 85.265625 -64 C 82.285156 -69.320312 78.15625 -73.492188 72.875 -76.515625 C 67.601562 -79.546875 61.46875 -81.0625 54.46875 -81.0625 C 47.550781 -81.0625 41.429688 -79.546875 36.109375 -76.515625 C 30.796875 -73.492188 26.644531 -69.320312 23.65625 -64 C 20.675781 -58.6875 19.1875 -52.484375 19.1875 -45.390625 Z M 19.1875 -45.390625 "/></g></g><g style="fill:#ffffff;fill-opacity:1;"><g transform="translate(748.845426, 710.928328)"><path style="stroke:none" d="M 54.46875 1.6875 C 45.300781 1.6875 37.171875 -0.320312 30.078125 -4.34375 C 22.992188 -8.363281 17.460938 -13.914062 13.484375 -21 C 9.503906 -28.09375 7.515625 -36.222656 7.515625 -45.390625 C 7.515625 -54.640625 9.503906 -62.785156 13.484375 -69.828125 C 17.460938 -76.878906 22.992188 -82.414062 30.078125 -86.4375 C 37.171875 -90.457031 45.300781 -92.46875 54.46875 -92.46875 C 63.71875 -92.46875 71.863281 -90.457031 78.90625 -86.4375 C 85.957031 -82.414062 91.492188 -76.878906 95.515625 -69.828125 C 99.535156 -62.785156 101.546875 -54.640625 101.546875 -45.390625 C 101.546875 -36.222656 99.535156 -28.09375 95.515625 -21 C 91.492188 -13.914062 85.957031 -8.363281 78.90625 -4.34375 C 71.863281 -0.320312 63.71875 1.6875 54.46875 1.6875 Z M 19.1875 -45.390625 C 19.1875 -38.390625 20.675781 -32.207031 23.65625 -26.84375 C 26.644531 -21.488281 30.796875 -17.296875 36.109375 -14.265625 C 41.429688 -11.242188 47.550781 -9.734375 54.46875 -9.734375 C 61.46875 -9.734375 67.601562 -11.242188 72.875 -14.265625 C 78.15625 -17.296875 82.285156 -21.488281 85.265625 -26.84375 C 88.253906 -32.207031 89.75 -38.390625 89.75 -45.390625 C 89.75 -52.484375 88.253906 -58.6875 85.265625 -64 C 82.285156 -69.320312 78.15625 -73.492188 72.875 -76.515625 C 67.601562 -79.546875 61.46875 -81.0625 54.46875 -81.0625 C 47.550781 -81.0625 41.429688 -79.546875 36.109375 -76.515625 C 30.796875 -73.492188 26.644531 -69.320312 23.65625 -64 C 20.675781 -58.6875 19.1875 -52.484375 19.1875 -45.390625 Z M 19.1875 -45.390625 "/></g></g><g style="fill:#ffffff;fill-opacity:1;"><g transform="translate(857.771562, 710.928328)"><path style="stroke:none" d="M 13.234375 0 L 13.234375 -90.78125 L 23.859375 -90.78125 L 59.53125 -36.96875 L 94.9375 -90.78125 L 105.5625 -90.78125 L 105.5625 0 L 94.15625 0 L 94.15625 -69.390625 L 64.0625 -24.125 L 54.734375 -24.125 L 24.640625 -69.515625 L 24.640625 0 Z M 13.234375 0 "/></g></g><g style="fill:#ffffff;fill-opacity:1;"><g transform="translate(168.179599, 772.258563)"><path style="stroke:none" d="M 3.515625 0 L 3.515625 -24.15625 L 12.734375 -24.15625 C 14.410156 -24.15625 15.867188 -23.835938 17.109375 -23.203125 C 18.359375 -22.578125 19.328125 -21.6875 20.015625 -20.53125 C 20.703125 -19.382812 21.046875 -18.003906 21.046875 -16.390625 C 21.046875 -14.441406 20.539062 -12.828125 19.53125 -11.546875 C 18.519531 -10.265625 17.128906 -9.40625 15.359375 -8.96875 L 21.4375 0 L 17.78125 0 L 11.875 -8.65625 L 6.5625 -8.65625 L 6.5625 0 Z M 6.5625 -11.5625 L 12.390625 -11.5625 C 14.160156 -11.5625 15.53125 -11.976562 16.5 -12.8125 C 17.46875 -13.65625 17.953125 -14.847656 17.953125 -16.390625 C 17.953125 -17.929688 17.46875 -19.128906 16.5 -19.984375 C 15.53125 -20.835938 14.160156 -21.265625 12.390625 -21.265625 L 6.5625 -21.265625 Z M 6.5625 -11.5625 "/></g></g><g style="fill:#ffffff;fill-opacity:1;"><g transform="translate(200.97221, 772.258563)"><path style="stroke:none" d="M 3.515625 0 L 3.515625 -24.15625 L 18.1875 -24.15625 L 18.1875 -21.328125 L 6.5625 -21.328125 L 6.5625 -13.703125 L 17.328125 -13.703125 L 17.328125 -10.90625 L 6.5625 -10.90625 L 6.5625 -2.828125 L 18.5625 -2.828125 L 18.5625 0 Z M 3.515625 0 "/></g></g><g style="fill:#ffffff;fill-opacity:1;"><g transform="translate(231.072662, 772.258563)"><path style="stroke:none" d="M 3.515625 0 L 3.515625 -24.15625 L 6.390625 -24.15625 L 19.75 -5.25 L 19.75 -24.15625 L 22.71875 -24.15625 L 22.71875 0 L 19.875 0 L 6.53125 -18.921875 L 6.53125 0 Z M 3.515625 0 "/></g></g><g style="fill:#ffffff;fill-opacity:1;"><g transform="translate(266.591964, 772.258563)"><path style="stroke:none" d="M 9.359375 0 L 9.359375 -21.265625 L 1.171875 -21.265625 L 1.171875 -24.15625 L 20.53125 -24.15625 L 20.53125 -21.265625 L 12.390625 -21.265625 L 12.390625 0 Z M 9.359375 0 "/></g></g><g style="fill:#ffffff;fill-opacity:1;"><g transform="translate(297.624323, 772.258563)"><path style="stroke:none" d="M 0.59375 0 L 10.53125 -24.15625 L 13.359375 -24.15625 L 23.296875 0 L 20.09375 0 L 17.8125 -5.484375 L 6.046875 -5.484375 L 3.828125 0 Z M 7.21875 -8.3125 L 16.671875 -8.3125 L 11.9375 -19.921875 Z M 7.21875 -8.3125 "/></g></g><g style="fill:#ffffff;fill-opacity:1;"><g transform="translate(330.796611, 772.258563)"><path style="stroke:none" d="M 3.515625 0 L 3.515625 -24.15625 L 6.5625 -24.15625 L 6.5625 -2.90625 L 18.296875 -2.90625 L 18.296875 0 Z M 3.515625 0 "/></g></g><g style="fill:#ffffff;fill-opacity:1;"><g transform="translate(359.447443, 772.258563)"><path style="stroke:none" d=""/></g></g><g style="fill:#ffffff;fill-opacity:1;"><g transform="translate(377.29509, 772.258563)"><path style="stroke:none" d="M 3.515625 0 L 3.515625 -24.15625 L 6.34375 -24.15625 L 15.84375 -9.84375 L 25.265625 -24.15625 L 28.09375 -24.15625 L 28.09375 0 L 25.0625 0 L 25.0625 -18.46875 L 17.046875 -6.421875 L 14.5625 -6.421875 L 6.5625 -18.5 L 6.5625 0 Z M 3.515625 0 "/></g></g><g style="fill:#ffffff;fill-opacity:1;"><g transform="translate(418.198728, 772.258563)"><path style="stroke:none" d="M 0.59375 0 L 10.53125 -24.15625 L 13.359375 -24.15625 L 23.296875 0 L 20.09375 0 L 17.8125 -5.484375 L 6.046875 -5.484375 L 3.828125 0 Z M 7.21875 -8.3125 L 16.671875 -8.3125 L 11.9375 -19.921875 Z M 7.21875 -8.3125 "/></g></g><g style="fill:#ffffff;fill-opacity:1;"><g transform="translate(451.371016, 772.258563)"><path style="stroke:none" d="M 3.515625 0 L 3.515625 -24.15625 L 6.390625 -24.15625 L 19.75 -5.25 L 19.75 -24.15625 L 22.71875 -24.15625 L 22.71875 0 L 19.875 0 L 6.53125 -18.921875 L 6.53125 0 Z M 3.515625 0 "/></g></g><g style="fill:#ffffff;fill-opacity:1;"><g transform="translate(486.890318, 772.258563)"><path style="stroke:none" d="M 0.59375 0 L 10.53125 -24.15625 L 13.359375 -24.15625 L 23.296875 0 L 20.09375 0 L 17.8125 -5.484375 L 6.046875 -5.484375 L 3.828125 0 Z M 7.21875 -8.3125 L 16.671875 -8.3125 L 11.9375 -19.921875 Z M 7.21875 -8.3125 "/></g></g><g style="fill:#ffffff;fill-opacity:1;"><g transform="translate(520.062607, 772.258563)"><path style="stroke:none" d="M 14.296875 0.453125 C 12.515625 0.453125 10.875 0.140625 9.375 -0.484375 C 7.882812 -1.109375 6.585938 -1.976562 5.484375 -3.09375 C 4.378906 -4.207031 3.519531 -5.53125 2.90625 -7.0625 C 2.300781 -8.59375 2 -10.265625 2 -12.078125 C 2 -13.898438 2.296875 -15.566406 2.890625 -17.078125 C 3.492188 -18.597656 4.347656 -19.921875 5.453125 -21.046875 C 6.554688 -22.179688 7.847656 -23.054688 9.328125 -23.671875 C 10.816406 -24.296875 12.445312 -24.609375 14.21875 -24.609375 C 16.0625 -24.609375 17.765625 -24.273438 19.328125 -23.609375 C 20.890625 -22.941406 22.238281 -22.007812 23.375 -20.8125 C 24.519531 -19.613281 25.347656 -18.222656 25.859375 -16.640625 L 22.53125 -16.640625 C 21.78125 -18.203125 20.691406 -19.414062 19.265625 -20.28125 C 17.835938 -21.144531 16.191406 -21.578125 14.328125 -21.578125 C 12.523438 -21.578125 10.925781 -21.171875 9.53125 -20.359375 C 8.144531 -19.554688 7.0625 -18.441406 6.28125 -17.015625 C 5.5 -15.585938 5.109375 -13.941406 5.109375 -12.078125 C 5.109375 -10.210938 5.503906 -8.566406 6.296875 -7.140625 C 7.085938 -5.710938 8.179688 -4.597656 9.578125 -3.796875 C 10.972656 -2.992188 12.566406 -2.59375 14.359375 -2.59375 C 15.992188 -2.59375 17.441406 -2.910156 18.703125 -3.546875 C 19.972656 -4.191406 21.003906 -5.082031 21.796875 -6.21875 C 22.585938 -7.363281 23.085938 -8.695312 23.296875 -10.21875 L 13.46875 -10.21875 L 13.46875 -13.109375 L 26.578125 -13.109375 C 26.617188 -10.460938 26.128906 -8.117188 25.109375 -6.078125 C 24.085938 -4.046875 22.648438 -2.445312 20.796875 -1.28125 C 18.941406 -0.125 16.773438 0.453125 14.296875 0.453125 Z M 14.296875 0.453125 "/></g></g><g style="fill:#ffffff;fill-opacity:1;"><g transform="translate(557.825401, 772.258563)"><path style="stroke:none" d="M 3.515625 0 L 3.515625 -24.15625 L 18.1875 -24.15625 L 18.1875 -21.328125 L 6.5625 -21.328125 L 6.5625 -13.703125 L 17.328125 -13.703125 L 17.328125 -10.90625 L 6.5625 -10.90625 L 6.5625 -2.828125 L 18.5625 -2.828125 L 18.5625 0 Z M 3.515625 0 "/></g></g><g style="fill:#ffffff;fill-opacity:1;"><g transform="translate(587.925854, 772.258563)"><path style="stroke:none" d="M 3.515625 0 L 3.515625 -24.15625 L 6.34375 -24.15625 L 15.84375 -9.84375 L 25.265625 -24.15625 L 28.09375 -24.15625 L 28.09375 0 L 25.0625 0 L 25.0625 -18.46875 L 17.046875 -6.421875 L 14.5625 -6.421875 L 6.5625 -18.5 L 6.5625 0 Z M 3.515625 0 "/></g></g><g style="fill:#ffffff;fill-opacity:1;"><g transform="translate(628.82947, 772.258563)"><path style="stroke:none" d="M 3.515625 0 L 3.515625 -24.15625 L 18.1875 -24.15625 L 18.1875 -21.328125 L 6.5625 -21.328125 L 6.5625 -13.703125 L 17.328125 -13.703125 L 17.328125 -10.90625 L 6.5625 -10.90625 L 6.5625 -2.828125 L 18.5625 -2.828125 L 18.5625 0 Z M 3.515625 0 "/></g></g><g style="fill:#ffffff;fill-opacity:1;"><g transform="translate(658.929922, 772.258563)"><path style="stroke:none" d="M 3.515625 0 L 3.515625 -24.15625 L 6.390625 -24.15625 L 19.75 -5.25 L 19.75 -24.15625 L 22.71875 -24.15625 L 22.71875 0 L 19.875 0 L 6.53125 -18.921875 L 6.53125 0 Z M 3.515625 0 "/></g></g><g style="fill:#ffffff;fill-opacity:1;"><g transform="translate(694.449224, 772.258563)"><path style="stroke:none" d="M 9.359375 0 L 9.359375 -21.265625 L 1.171875 -21.265625 L 1.171875 -24.15625 L 20.53125 -24.15625 L 20.53125 -21.265625 L 12.390625 -21.265625 L 12.390625 0 Z M 9.359375 0 "/></g></g><g style="fill:#ffffff;fill-opacity:1;"><g transform="translate(725.481583, 772.258563)"><path style="stroke:none" d=""/></g></g><g style="fill:#ffffff;fill-opacity:1;"><g transform="translate(743.32923, 772.258563)"><path style="stroke:none" d="M 8.484375 0 L 0.65625 -24.15625 L 3.828125 -24.15625 L 7.171875 -13.734375 L 10.015625 -4.859375 L 17.15625 -24.15625 L 20.015625 -24.15625 L 27.15625 -4.828125 L 33.375 -24.15625 L 36.546875 -24.15625 L 28.6875 0 L 25.859375 0 L 22.578125 -8.796875 L 18.5625 -19.578125 L 11.328125 0 Z M 8.484375 0 "/></g></g><g style="fill:#ffffff;fill-opacity:1;"><g transform="translate(789.824288, 772.258563)"><path style="stroke:none" d="M 3.515625 0 L 3.515625 -24.15625 L 18.1875 -24.15625 L 18.1875 -21.328125 L 6.5625 -21.328125 L 6.5625 -13.703125 L 17.328125 -13.703125 L 17.328125 -10.90625 L 6.5625 -10.90625 L 6.5625 -2.828125 L 18.5625 -2.828125 L 18.5625 0 Z M 3.515625 0 "/></g></g><g style="fill:#ffffff;fill-opacity:1;"><g transform="translate(819.924741, 772.258563)"><path style="stroke:none" d="M 3.515625 0 L 3.515625 -24.15625 L 12.875 -24.15625 C 15.195312 -24.15625 17.050781 -23.570312 18.4375 -22.40625 C 19.832031 -21.25 20.53125 -19.691406 20.53125 -17.734375 C 20.53125 -16.566406 20.253906 -15.53125 19.703125 -14.625 C 19.148438 -13.726562 18.378906 -13.03125 17.390625 -12.53125 C 18.640625 -12.019531 19.59375 -11.269531 20.25 -10.28125 C 20.90625 -9.289062 21.234375 -8.117188 21.234375 -6.765625 C 21.234375 -4.671875 20.523438 -3.019531 19.109375 -1.8125 C 17.691406 -0.601562 15.765625 0 13.328125 0 Z M 6.5625 -2.828125 L 13.25 -2.828125 C 14.8125 -2.828125 16.015625 -3.179688 16.859375 -3.890625 C 17.703125 -4.609375 18.125 -5.613281 18.125 -6.90625 C 18.125 -8.195312 17.695312 -9.191406 16.84375 -9.890625 C 15.988281 -10.585938 14.78125 -10.9375 13.21875 -10.9375 L 6.5625 -10.9375 Z M 6.5625 -13.703125 L 12.8125 -13.703125 C 14.300781 -13.703125 15.441406 -14.035156 16.234375 -14.703125 C 17.035156 -15.367188 17.4375 -16.300781 17.4375 -17.5 C 17.4375 -18.71875 17.03125 -19.660156 16.21875 -20.328125 C 15.414062 -20.992188 14.28125 -21.328125 12.8125 -21.328125 L 6.5625 -21.328125 Z M 6.5625 -13.703125 "/></g></g><g style="fill:#ffffff;fill-opacity:1;"><g transform="translate(852.372208, 772.258563)"><path style="stroke:none" d=""/></g></g><g style="fill:#ffffff;fill-opacity:1;"><g transform="translate(870.219855, 772.258563)"><path style="stroke:none" d="M 0.59375 0 L 10.53125 -24.15625 L 13.359375 -24.15625 L 23.296875 0 L 20.09375 0 L 17.8125 -5.484375 L 6.046875 -5.484375 L 3.828125 0 Z M 7.21875 -8.3125 L 16.671875 -8.3125 L 11.9375 -19.921875 Z M 7.21875 -8.3125 "/></g></g><g style="fill:#ffffff;fill-opacity:1;"><g transform="translate(903.392144, 772.258563)"><path style="stroke:none" d="M 3.515625 0 L 3.515625 -24.15625 L 11.703125 -24.15625 C 13.515625 -24.15625 15.09375 -23.820312 16.4375 -23.15625 C 17.789062 -22.488281 18.832031 -21.550781 19.5625 -20.34375 C 20.300781 -19.132812 20.671875 -17.703125 20.671875 -16.046875 C 20.671875 -14.390625 20.300781 -12.957031 19.5625 -11.75 C 18.832031 -10.539062 17.789062 -9.601562 16.4375 -8.9375 C 15.09375 -8.269531 13.515625 -7.9375 11.703125 -7.9375 L 6.5625 -7.9375 L 6.5625 0 Z M 6.5625 -10.765625 L 11.625 -10.765625 C 15.582031 -10.765625 17.5625 -12.515625 17.5625 -16.015625 C 17.5625 -19.515625 15.582031 -21.265625 11.625 -21.265625 L 6.5625 -21.265625 Z M 6.5625 -10.765625 "/></g></g><g style="fill:#ffffff;fill-opacity:1;"><g transform="translate(934.735111, 772.258563)"><path style="stroke:none" d="M 3.515625 0 L 3.515625 -24.15625 L 11.703125 -24.15625 C 13.515625 -24.15625 15.09375 -23.820312 16.4375 -23.15625 C 17.789062 -22.488281 18.832031 -21.550781 19.5625 -20.34375 C 20.300781 -19.132812 20.671875 -17.703125 20.671875 -16.046875 C 20.671875 -14.390625 20.300781 -12.957031 19.5625 -11.75 C 18.832031 -10.539062 17.789062 -9.601562 16.4375 -8.9375 C 15.09375 -8.269531 13.515625 -7.9375 11.703125 -7.9375 L 6.5625 -7.9375 L 6.5625 0 Z M 6.5625 -10.765625 L 11.625 -10.765625 C 15.582031 -10.765625 17.5625 -12.515625 17.5625 -16.015625 C 17.5625 -19.515625 15.582031 -21.265625 11.625 -21.265625 L 6.5625 -21.265625 Z M 6.5625 -10.765625 "/></g></g><g clip-rule="nonzero" clip-path="url(#02670d9a89)"><g clip-rule="nonzero" clip-path="url(#3554d33a16)"><path style=" stroke:none;fill-rule:nonzero;fill:#467404;fill-opacity:1;" d="M 559.625 275.105469 L 1006.507812 275.105469 L 1006.507812 585.140625 L 559.625 585.140625 Z M 559.625 275.105469 "/></g></g><g clip-rule="nonzero" clip-path="url(#f39ba18962)"><g clip-rule="nonzero" clip-path="url(#803afab17d)"><path style=" stroke:none;fill-rule:nonzero;fill:#467404;fill-opacity:1;" d="M 432.550781 23.023438 L 1134.199219 23.023438 L 1134.199219 389.601562 L 432.550781 389.601562 Z M 432.550781 23.023438 "/></g></g><path style="fill:none;stroke-width:90;stroke-linecap:round;stroke-linejoin:miter;stroke:#467404;stroke-opacity:1;stroke-miterlimit:4;" d="M 44.997808 45.000561 L 148.674897 45.000561 " transform="matrix(0,0.75,-0.75,0,972.3637,99.568052)"/><g clip-rule="nonzero" clip-path="url(#3ef372d5d5)"><g clip-rule="nonzero" clip-path="url(#07a10e7478)"><path style=" stroke:none;fill-rule:nonzero;fill:#7dd111;fill-opacity:1;" d="M 675.292969 432.910156 L 783.261719 432.910156 L 783.261719 585.160156 L 675.292969 585.160156 Z M 675.292969 432.910156 "/></g></g><g clip-rule="nonzero" clip-path="url(#b83daaedd6)"><path style=" stroke:none;fill-rule:nonzero;fill:#7dd111;fill-opacity:1;" d="M 675.292969 509.023438 L 783.222656 509.023438 L 783.222656 585.140625 L 675.292969 585.140625 Z M 675.292969 509.023438 "/></g><g clip-rule="nonzero" clip-path="url(#a36ad4394f)"><g clip-rule="nonzero" clip-path="url(#2d298cd392)"><path style=" stroke:none;fill-rule:nonzero;fill:#5ea400;fill-opacity:1;" d="M 380.160156 332.851562 L 743.8125 332.851562 L 743.8125 585.140625 L 380.160156 585.140625 Z M 380.160156 332.851562 "/></g></g><g clip-rule="nonzero" clip-path="url(#a0e1e4f3d9)"><g clip-rule="nonzero" clip-path="url(#faea981fbd)"><path style=" stroke:none;fill-rule:nonzero;fill:#5ea400;fill-opacity:1;" d="M 276.753906 127.71875 L 847.71875 127.71875 L 847.71875 426.019531 L 276.753906 426.019531 Z M 276.753906 127.71875 "/></g></g><path style="fill:none;stroke-width:71;stroke-linecap:round;stroke-linejoin:miter;stroke:#5ea400;stroke-opacity:1;stroke-miterlimit:4;" d="M 35.499011 35.501515 L 122.103182 35.501515 " transform="matrix(0,0.75,-0.75,0,715.184729,190.008555)"/><g clip-rule="nonzero" clip-path="url(#36f5c1446d)"><g clip-rule="nonzero" clip-path="url(#3d464335fb)"><path style=" stroke:none;fill-rule:nonzero;fill:#467404;fill-opacity:1;" d="M 474.285156 461.261719 L 562.144531 461.261719 L 562.144531 585.15625 L 474.285156 585.15625 Z M 474.285156 461.261719 "/></g></g><g clip-rule="nonzero" clip-path="url(#0ef4423687)"><path style=" stroke:none;fill-rule:nonzero;fill:#467404;fill-opacity:1;" d="M 474.285156 523.203125 L 562.113281 523.203125 L 562.113281 585.140625 L 474.285156 585.140625 Z M 474.285156 523.203125 "/></g><g clip-rule="nonzero" clip-path="url(#b5dd316625)"><g clip-rule="nonzero" clip-path="url(#52af160e64)"><path style=" stroke:none;fill-rule:nonzero;fill:#7dd111;fill-opacity:1;" d="M 106.269531 303.976562 L 511.535156 303.976562 L 511.535156 585.140625 L 106.269531 585.140625 Z M 106.269531 303.976562 "/></g></g><g clip-rule="nonzero" clip-path="url(#03b042b0b4)"><g clip-rule="nonzero" clip-path="url(#c853ab2296)"><path style=" stroke:none;fill-rule:nonzero;fill:#7dd111;fill-opacity:1;" d="M -8.972656 75.371094 L 627.332031 75.371094 L 627.332031 407.8125 L -8.972656 407.8125 Z M -8.972656 75.371094 "/></g></g><path style="fill:none;stroke-width:82;stroke-linecap:round;stroke-linejoin:miter;stroke:#7dd111;stroke-opacity:1;stroke-miterlimit:4;" d="M 41.002317 41.002228 L 134.637738 41.002228 " transform="matrix(0,0.75,-0.75,0,480.708701,144.791233)"/><g clip-rule="nonzero" clip-path="url(#5ab5f78fd1)"><g clip-rule="nonzero" clip-path="url(#92f0e51ba2)"><path style=" stroke:none;fill-rule:nonzero;fill:#467404;fill-opacity:1;" d="M 211.164062 447.085938 L 309.078125 447.085938 L 309.078125 585.160156 L 211.164062 585.160156 Z M 211.164062 447.085938 "/></g></g><g clip-rule="nonzero" clip-path="url(#6f466bf681)"><path style=" stroke:none;fill-rule:nonzero;fill:#467404;fill-opacity:1;" d="M 211.164062 516.113281 L 309.042969 516.113281 L 309.042969 585.140625 L 211.164062 585.140625 Z M 211.164062 516.113281 "/></g></g></svg>