<svg xmlns="http://www.w3.org/2000/svg" xmlns:xlink="http://www.w3.org/1999/xlink" width="700" zoomAndPan="magnify" viewBox="0 0 525 374.999991" height="500" preserveAspectRatio="xMidYMid meet" version="1.2"><defs><clipPath id="5dbda8ae29"><path d="M 261.144531 137.109375 L 472.625 137.109375 L 472.625 283.433594 L 261.144531 283.433594 Z M 261.144531 137.109375 "/></clipPath><clipPath id="5bd2b0be85"><path d="M 269.019531 137.109375 L 464.363281 137.109375 C 466.449219 137.109375 468.453125 137.941406 469.929688 139.417969 C 471.40625 140.894531 472.238281 142.894531 472.238281 144.984375 L 472.238281 275.558594 C 472.238281 277.644531 471.40625 279.648438 469.929688 281.125 C 468.453125 282.601562 466.449219 283.433594 464.363281 283.433594 L 269.019531 283.433594 C 266.929688 283.433594 264.925781 282.601562 263.449219 281.125 C 261.972656 279.648438 261.144531 277.644531 261.144531 275.558594 L 261.144531 144.984375 C 261.144531 142.894531 261.972656 140.894531 263.449219 139.417969 C 264.925781 137.941406 266.929688 137.109375 269.019531 137.109375 Z M 269.019531 137.109375 "/></clipPath><clipPath id="b0d852e8a0"><path d="M 213.332031 27 L 520 27 L 520 191.148438 L 213.332031 191.148438 Z M 213.332031 27 "/></clipPath><clipPath id="be97e0d800"><path d="M 381.660156 33.785156 L 517.242188 175.5 C 519.800781 178.175781 520.519531 182.121094 519.0625 185.53125 C 517.609375 188.9375 514.261719 191.148438 510.554688 191.148438 L 222.824219 191.148438 C 219.121094 191.148438 215.773438 188.9375 214.316406 185.53125 C 212.863281 182.121094 213.578125 178.175781 216.140625 175.5 L 351.71875 33.785156 C 355.628906 29.699219 361.035156 27.390625 366.691406 27.390625 C 372.34375 27.390625 377.753906 29.699219 381.660156 33.785156 Z M 381.660156 33.785156 "/></clipPath><clipPath id="19d0674fdc"><path d="M 315.734375 211.585938 L 366.691406 211.585938 L 366.691406 283.441406 L 315.734375 283.441406 Z M 315.734375 211.585938 "/></clipPath><clipPath id="850c87f116"><path d="M 319.671875 211.585938 L 362.753906 211.585938 C 363.796875 211.585938 364.796875 212 365.535156 212.742188 C 366.277344 213.480469 366.691406 214.480469 366.691406 215.523438 L 366.691406 279.496094 C 366.691406 280.539062 366.277344 281.542969 365.535156 282.28125 C 364.796875 283.019531 363.796875 283.433594 362.753906 283.433594 L 319.671875 283.433594 C 318.628906 283.433594 317.625 283.019531 316.886719 282.28125 C 316.148438 281.542969 315.734375 280.539062 315.734375 279.496094 L 315.734375 215.523438 C 315.734375 214.480469 316.148438 213.480469 316.886719 212.742188 C 317.625 212 318.628906 211.585938 319.671875 211.585938 Z M 319.671875 211.585938 "/></clipPath><clipPath id="e6cfcf06c9"><path d="M 315.734375 247.511719 L 366.691406 247.511719 L 366.691406 283.433594 L 315.734375 283.433594 Z M 315.734375 247.511719 "/></clipPath><clipPath id="3b97e5944c"><path d="M 176.445312 164.363281 L 348.535156 164.363281 L 348.535156 283.433594 L 176.445312 283.433594 Z M 176.445312 164.363281 "/></clipPath><clipPath id="0dba2e550a"><path d="M 184.320312 164.363281 L 340.347656 164.363281 C 344.695312 164.363281 348.222656 167.886719 348.222656 172.238281 L 348.222656 275.558594 C 348.222656 279.90625 344.695312 283.433594 340.347656 283.433594 L 184.320312 283.433594 C 179.96875 283.433594 176.445312 279.90625 176.445312 275.558594 L 176.445312 172.238281 C 176.445312 167.886719 179.96875 164.363281 184.320312 164.363281 Z M 184.320312 164.363281 "/></clipPath><clipPath id="725ae90661"><path d="M 139.1875 76 L 385.5625 76 L 385.5625 208.335938 L 139.1875 208.335938 Z M 139.1875 76 "/></clipPath><clipPath id="6a447bc708"><path d="M 276.394531 82.25 L 382.960938 193.636719 C 385.367188 196.148438 386.042969 199.859375 384.675781 203.058594 C 383.304688 206.257812 380.160156 208.335938 376.679688 208.335938 L 147.984375 208.335938 C 144.503906 208.335938 141.359375 206.257812 139.992188 203.058594 C 138.625 199.859375 139.296875 196.148438 141.703125 193.636719 L 248.269531 82.25 C 251.941406 78.410156 257.019531 76.242188 262.332031 76.242188 C 267.644531 76.242188 272.722656 78.410156 276.394531 82.25 Z M 276.394531 82.25 "/></clipPath><clipPath id="67a4829683"><path d="M 220.867188 224.96875 L 262.332031 224.96875 L 262.332031 283.441406 L 220.867188 283.441406 Z M 220.867188 224.96875 "/></clipPath><clipPath id="64eb4be6a4"><path d="M 224.804688 224.96875 L 258.394531 224.96875 C 259.4375 224.96875 260.441406 225.382812 261.179688 226.121094 C 261.917969 226.859375 262.332031 227.863281 262.332031 228.90625 L 262.332031 279.496094 C 262.332031 280.539062 261.917969 281.542969 261.179688 282.28125 C 260.441406 283.019531 259.4375 283.433594 258.394531 283.433594 L 224.804688 283.433594 C 223.761719 283.433594 222.757812 283.019531 222.019531 282.28125 C 221.28125 281.542969 220.867188 280.539062 220.867188 279.496094 L 220.867188 228.90625 C 220.867188 227.863281 221.28125 226.859375 222.019531 226.121094 C 222.757812 225.382812 223.761719 224.96875 224.804688 224.96875 Z M 224.804688 224.96875 "/></clipPath><clipPath id="de3aad0af8"><path d="M 220.867188 254.199219 L 262.332031 254.199219 L 262.332031 283.433594 L 220.867188 283.433594 Z M 220.867188 254.199219 "/></clipPath><clipPath id="4be31b4f65"><path d="M 47.175781 150.738281 L 238.964844 150.738281 L 238.964844 283.433594 L 47.175781 283.433594 Z M 47.175781 150.738281 "/></clipPath><clipPath id="814353ca14"><path d="M 55.050781 150.738281 L 230.738281 150.738281 C 235.085938 150.738281 238.613281 154.261719 238.613281 158.613281 L 238.613281 275.558594 C 238.613281 279.90625 235.085938 283.433594 230.738281 283.433594 L 55.050781 283.433594 C 50.703125 283.433594 47.175781 279.90625 47.175781 275.558594 L 47.175781 158.613281 C 47.175781 154.261719 50.703125 150.738281 55.050781 150.738281 Z M 55.050781 150.738281 "/></clipPath><clipPath id="15c7f6d675"><path d="M 4.433594 51.425781 L 281.453125 51.425781 L 281.453125 199.742188 L 4.433594 199.742188 Z M 4.433594 51.425781 "/></clipPath><clipPath id="c627953a3d"><path d="M 156.960938 57.542969 L 278.9375 185.042969 C 281.34375 187.554688 282.019531 191.261719 280.652344 194.464844 C 279.285156 197.664062 276.140625 199.742188 272.660156 199.742188 L 13.132812 199.742188 C 9.652344 199.742188 6.507812 197.664062 5.140625 194.464844 C 3.773438 191.261719 4.445312 187.554688 6.851562 185.042969 L 128.832031 57.542969 C 132.503906 53.707031 137.585938 51.535156 142.894531 51.535156 C 148.207031 51.535156 153.289062 53.707031 156.960938 57.542969 Z M 156.960938 57.542969 "/></clipPath><clipPath id="837fd68e99"><path d="M 96.683594 218.277344 L 142.894531 218.277344 L 142.894531 283.441406 L 96.683594 283.441406 Z M 96.683594 218.277344 "/></clipPath><clipPath id="3fdd2b122f"><path d="M 100.621094 218.277344 L 138.957031 218.277344 C 140.003906 218.277344 141.003906 218.691406 141.742188 219.429688 C 142.480469 220.167969 142.894531 221.171875 142.894531 222.214844 L 142.894531 279.496094 C 142.894531 280.539062 142.480469 281.542969 141.742188 282.28125 C 141.003906 283.019531 140.003906 283.433594 138.957031 283.433594 L 100.621094 283.433594 C 99.578125 283.433594 98.578125 283.019531 97.839844 282.28125 C 97.101562 281.542969 96.683594 280.539062 96.683594 279.496094 L 96.683594 222.214844 C 96.683594 221.171875 97.101562 220.167969 97.839844 219.429688 C 98.578125 218.691406 99.578125 218.277344 100.621094 218.277344 Z M 100.621094 218.277344 "/></clipPath><clipPath id="b15ffeb60d"><path d="M 96.683594 250.855469 L 142.894531 250.855469 L 142.894531 283.433594 L 96.683594 283.433594 Z M 96.683594 250.855469 "/></clipPath></defs><g id="019aa437c2"><g style="fill:#333333;fill-opacity:1;"><g transform="translate(2.331741, 358.208107)"><path style="stroke:none" d="M 45.6875 0 L 45.6875 -25.65625 L 15.46875 -25.65625 L 15.46875 0 L 8.3125 0 L 8.3125 -57.015625 L 15.46875 -57.015625 L 15.46875 -32.5 L 45.6875 -32.5 L 45.6875 -57.015625 L 52.859375 -57.015625 L 52.859375 0 Z M 45.6875 0 "/></g></g><g style="fill:#333333;fill-opacity:1;"><g transform="translate(63.505263, 358.208107)"><path style="stroke:none" d="M 34.203125 1.0625 C 28.453125 1.0625 23.347656 -0.195312 18.890625 -2.71875 C 14.441406 -5.25 10.96875 -8.738281 8.46875 -13.1875 C 5.96875 -17.644531 4.71875 -22.753906 4.71875 -28.515625 C 4.71875 -34.316406 5.96875 -39.429688 8.46875 -43.859375 C 10.96875 -48.285156 14.441406 -51.757812 18.890625 -54.28125 C 23.347656 -56.8125 28.453125 -58.078125 34.203125 -58.078125 C 40.015625 -58.078125 45.132812 -56.8125 49.5625 -54.28125 C 53.988281 -51.757812 57.460938 -48.285156 59.984375 -43.859375 C 62.515625 -39.429688 63.78125 -34.316406 63.78125 -28.515625 C 63.78125 -22.753906 62.515625 -17.644531 59.984375 -13.1875 C 57.460938 -8.738281 53.988281 -5.25 49.5625 -2.71875 C 45.132812 -0.195312 40.015625 1.0625 34.203125 1.0625 Z M 12.0625 -28.515625 C 12.0625 -24.109375 12.992188 -20.222656 14.859375 -16.859375 C 16.734375 -13.492188 19.335938 -10.859375 22.671875 -8.953125 C 26.015625 -7.054688 29.859375 -6.109375 34.203125 -6.109375 C 38.609375 -6.109375 42.46875 -7.054688 45.78125 -8.953125 C 49.09375 -10.859375 51.679688 -13.492188 53.546875 -16.859375 C 55.421875 -20.222656 56.359375 -24.109375 56.359375 -28.515625 C 56.359375 -32.960938 55.421875 -36.851562 53.546875 -40.1875 C 51.679688 -43.53125 49.09375 -46.148438 45.78125 -48.046875 C 42.46875 -49.953125 38.609375 -50.90625 34.203125 -50.90625 C 29.859375 -50.90625 26.015625 -49.953125 22.671875 -48.046875 C 19.335938 -46.148438 16.734375 -43.53125 14.859375 -40.1875 C 12.992188 -36.851562 12.0625 -32.960938 12.0625 -28.515625 Z M 12.0625 -28.515625 "/></g></g><g style="fill:#333333;fill-opacity:1;"><g transform="translate(131.928391, 358.208107)"><path style="stroke:none" d="M 8.3125 0 L 8.3125 -57.015625 L 14.984375 -57.015625 L 37.390625 -23.21875 L 59.625 -57.015625 L 66.296875 -57.015625 L 66.296875 0 L 59.140625 0 L 59.140625 -43.578125 L 40.234375 -15.15625 L 34.375 -15.15625 L 15.46875 -43.65625 L 15.46875 0 Z M 8.3125 0 "/></g></g><g style="fill:#333333;fill-opacity:1;"><g transform="translate(206.542179, 358.208107)"><path style="stroke:none" d="M 8.3125 0 L 8.3125 -57.015625 L 42.921875 -57.015625 L 42.921875 -50.34375 L 15.46875 -50.34375 L 15.46875 -32.34375 L 40.890625 -32.34375 L 40.890625 -25.734375 L 15.46875 -25.734375 L 15.46875 -6.671875 L 43.828125 -6.671875 L 43.828125 0 Z M 8.3125 0 "/></g></g><g style="fill:#333333;fill-opacity:1;"><g transform="translate(255.660194, 358.208107)"><path style="stroke:none" d="M 8.3125 0 L 8.3125 -57.015625 L 30.0625 -57.015625 C 34.019531 -57.015625 37.460938 -56.265625 40.390625 -54.765625 C 43.328125 -53.273438 45.609375 -51.171875 47.234375 -48.453125 C 48.867188 -45.742188 49.6875 -42.488281 49.6875 -38.6875 C 49.6875 -34.070312 48.488281 -30.253906 46.09375 -27.234375 C 43.707031 -24.222656 40.425781 -22.203125 36.25 -21.171875 L 50.578125 0 L 41.953125 0 L 28.015625 -20.4375 L 15.46875 -20.4375 L 15.46875 0 Z M 15.46875 -27.28125 L 29.234375 -27.28125 C 33.421875 -27.28125 36.65625 -28.269531 38.9375 -30.25 C 41.21875 -32.238281 42.359375 -35.050781 42.359375 -38.6875 C 42.359375 -42.320312 41.21875 -45.144531 38.9375 -47.15625 C 36.65625 -49.164062 33.421875 -50.171875 29.234375 -50.171875 L 15.46875 -50.171875 Z M 15.46875 -27.28125 "/></g></g><g style="fill:#333333;fill-opacity:1;"><g transform="translate(311.131791, 358.208107)"><path style="stroke:none" d="M 34.203125 1.0625 C 28.453125 1.0625 23.347656 -0.195312 18.890625 -2.71875 C 14.441406 -5.25 10.96875 -8.738281 8.46875 -13.1875 C 5.96875 -17.644531 4.71875 -22.753906 4.71875 -28.515625 C 4.71875 -34.316406 5.96875 -39.429688 8.46875 -43.859375 C 10.96875 -48.285156 14.441406 -51.757812 18.890625 -54.28125 C 23.347656 -56.8125 28.453125 -58.078125 34.203125 -58.078125 C 40.015625 -58.078125 45.132812 -56.8125 49.5625 -54.28125 C 53.988281 -51.757812 57.460938 -48.285156 59.984375 -43.859375 C 62.515625 -39.429688 63.78125 -34.316406 63.78125 -28.515625 C 63.78125 -22.753906 62.515625 -17.644531 59.984375 -13.1875 C 57.460938 -8.738281 53.988281 -5.25 49.5625 -2.71875 C 45.132812 -0.195312 40.015625 1.0625 34.203125 1.0625 Z M 12.0625 -28.515625 C 12.0625 -24.109375 12.992188 -20.222656 14.859375 -16.859375 C 16.734375 -13.492188 19.335938 -10.859375 22.671875 -8.953125 C 26.015625 -7.054688 29.859375 -6.109375 34.203125 -6.109375 C 38.609375 -6.109375 42.46875 -7.054688 45.78125 -8.953125 C 49.09375 -10.859375 51.679688 -13.492188 53.546875 -16.859375 C 55.421875 -20.222656 56.359375 -24.109375 56.359375 -28.515625 C 56.359375 -32.960938 55.421875 -36.851562 53.546875 -40.1875 C 51.679688 -43.53125 49.09375 -46.148438 45.78125 -48.046875 C 42.46875 -49.953125 38.609375 -50.90625 34.203125 -50.90625 C 29.859375 -50.90625 26.015625 -49.953125 22.671875 -48.046875 C 19.335938 -46.148438 16.734375 -43.53125 14.859375 -40.1875 C 12.992188 -36.851562 12.0625 -32.960938 12.0625 -28.515625 Z M 12.0625 -28.515625 "/></g></g><g style="fill:#333333;fill-opacity:1;"><g transform="translate(379.554919, 358.208107)"><path style="stroke:none" d="M 34.203125 1.0625 C 28.453125 1.0625 23.347656 -0.195312 18.890625 -2.71875 C 14.441406 -5.25 10.96875 -8.738281 8.46875 -13.1875 C 5.96875 -17.644531 4.71875 -22.753906 4.71875 -28.515625 C 4.71875 -34.316406 5.96875 -39.429688 8.46875 -43.859375 C 10.96875 -48.285156 14.441406 -51.757812 18.890625 -54.28125 C 23.347656 -56.8125 28.453125 -58.078125 34.203125 -58.078125 C 40.015625 -58.078125 45.132812 -56.8125 49.5625 -54.28125 C 53.988281 -51.757812 57.460938 -48.285156 59.984375 -43.859375 C 62.515625 -39.429688 63.78125 -34.316406 63.78125 -28.515625 C 63.78125 -22.753906 62.515625 -17.644531 59.984375 -13.1875 C 57.460938 -8.738281 53.988281 -5.25 49.5625 -2.71875 C 45.132812 -0.195312 40.015625 1.0625 34.203125 1.0625 Z M 12.0625 -28.515625 C 12.0625 -24.109375 12.992188 -20.222656 14.859375 -16.859375 C 16.734375 -13.492188 19.335938 -10.859375 22.671875 -8.953125 C 26.015625 -7.054688 29.859375 -6.109375 34.203125 -6.109375 C 38.609375 -6.109375 42.46875 -7.054688 45.78125 -8.953125 C 49.09375 -10.859375 51.679688 -13.492188 53.546875 -16.859375 C 55.421875 -20.222656 56.359375 -24.109375 56.359375 -28.515625 C 56.359375 -32.960938 55.421875 -36.851562 53.546875 -40.1875 C 51.679688 -43.53125 49.09375 -46.148438 45.78125 -48.046875 C 42.46875 -49.953125 38.609375 -50.90625 34.203125 -50.90625 C 29.859375 -50.90625 26.015625 -49.953125 22.671875 -48.046875 C 19.335938 -46.148438 16.734375 -43.53125 14.859375 -40.1875 C 12.992188 -36.851562 12.0625 -32.960938 12.0625 -28.515625 Z M 12.0625 -28.515625 "/></g></g><g style="fill:#333333;fill-opacity:1;"><g transform="translate(447.978047, 358.208107)"><path style="stroke:none" d="M 8.3125 0 L 8.3125 -57.015625 L 14.984375 -57.015625 L 37.390625 -23.21875 L 59.625 -57.015625 L 66.296875 -57.015625 L 66.296875 0 L 59.140625 0 L 59.140625 -43.578125 L 40.234375 -15.15625 L 34.375 -15.15625 L 15.46875 -43.65625 L 15.46875 0 Z M 8.3125 0 "/></g></g><g clip-rule="nonzero" clip-path="url(#5dbda8ae29)"><g clip-rule="nonzero" clip-path="url(#5bd2b0be85)"><path style=" stroke:none;fill-rule:nonzero;fill:#467404;fill-opacity:1;" d="M 261.144531 137.109375 L 472.054688 137.109375 L 472.054688 283.433594 L 261.144531 283.433594 Z M 261.144531 137.109375 "/></g></g><g clip-rule="nonzero" clip-path="url(#b0d852e8a0)"><g clip-rule="nonzero" clip-path="url(#be97e0d800)"><path style=" stroke:none;fill-rule:nonzero;fill:#467404;fill-opacity:1;" d="M 201.167969 18.136719 L 532.316406 18.136719 L 532.316406 191.148438 L 201.167969 191.148438 Z M 201.167969 18.136719 "/></g></g><path style="fill:none;stroke-width:41;stroke-linecap:round;stroke-linejoin:miter;stroke:#467404;stroke-opacity:1;stroke-miterlimit:4;" d="M 20.500238 20.49991 L 70.903174 20.49991 " transform="matrix(0,0.746794,-0.746794,0,455.379528,54.268664)"/><g clip-rule="nonzero" clip-path="url(#19d0674fdc)"><g clip-rule="nonzero" clip-path="url(#850c87f116)"><path style=" stroke:none;fill-rule:nonzero;fill:#7dd111;fill-opacity:1;" d="M 315.734375 211.585938 L 366.691406 211.585938 L 366.691406 283.441406 L 315.734375 283.441406 Z M 315.734375 211.585938 "/></g></g><g clip-rule="nonzero" clip-path="url(#e6cfcf06c9)"><path style=" stroke:none;fill-rule:nonzero;fill:#7dd111;fill-opacity:1;" d="M 315.734375 247.511719 L 366.671875 247.511719 L 366.671875 283.433594 L 315.734375 283.433594 Z M 315.734375 247.511719 "/></g><g clip-rule="nonzero" clip-path="url(#3b97e5944c)"><g clip-rule="nonzero" clip-path="url(#0dba2e550a)"><path style=" stroke:none;fill-rule:nonzero;fill:#5ea400;fill-opacity:1;" d="M 176.445312 164.363281 L 348.070312 164.363281 L 348.070312 283.433594 L 176.445312 283.433594 Z M 176.445312 164.363281 "/></g></g><g clip-rule="nonzero" clip-path="url(#725ae90661)"><g clip-rule="nonzero" clip-path="url(#6a447bc708)"><path style=" stroke:none;fill-rule:nonzero;fill:#5ea400;fill-opacity:1;" d="M 127.640625 67.550781 L 397.113281 67.550781 L 397.113281 208.335938 L 127.640625 208.335938 Z M 127.640625 67.550781 "/></g></g><path style="fill:none;stroke-width:33;stroke-linecap:round;stroke-linejoin:miter;stroke:#5ea400;stroke-opacity:1;stroke-miterlimit:4;" d="M 16.500969 16.50217 L 57.881489 16.50217 " transform="matrix(0,0.746218,-0.746218,0,334.368911,96.948392)"/><g clip-rule="nonzero" clip-path="url(#67a4829683)"><g clip-rule="nonzero" clip-path="url(#64eb4be6a4)"><path style=" stroke:none;fill-rule:nonzero;fill:#467404;fill-opacity:1;" d="M 220.867188 224.96875 L 262.332031 224.96875 L 262.332031 283.441406 L 220.867188 283.441406 Z M 220.867188 224.96875 "/></g></g><g clip-rule="nonzero" clip-path="url(#de3aad0af8)"><path style=" stroke:none;fill-rule:nonzero;fill:#467404;fill-opacity:1;" d="M 220.867188 254.199219 L 262.316406 254.199219 L 262.316406 283.433594 L 220.867188 283.433594 Z M 220.867188 254.199219 "/></g><g clip-rule="nonzero" clip-path="url(#4be31b4f65)"><g clip-rule="nonzero" clip-path="url(#814353ca14)"><path style=" stroke:none;fill-rule:nonzero;fill:#7dd111;fill-opacity:1;" d="M 47.175781 150.738281 L 238.445312 150.738281 L 238.445312 283.433594 L 47.175781 283.433594 Z M 47.175781 150.738281 "/></g></g><g clip-rule="nonzero" clip-path="url(#15c7f6d675)"><g clip-rule="nonzero" clip-path="url(#c627953a3d)"><path style=" stroke:none;fill-rule:nonzero;fill:#7dd111;fill-opacity:1;" d="M -7.210938 42.84375 L 293.097656 42.84375 L 293.097656 199.742188 L -7.210938 199.742188 Z M -7.210938 42.84375 "/></g></g><path style="fill:none;stroke-width:40;stroke-linecap:round;stroke-linejoin:miter;stroke:#7dd111;stroke-opacity:1;stroke-miterlimit:4;" d="M 19.999828 19.999516 L 62.895664 19.999516 " transform="matrix(0,0.75,-0.75,0,224.386355,75.605599)"/><g clip-rule="nonzero" clip-path="url(#837fd68e99)"><g clip-rule="nonzero" clip-path="url(#3fdd2b122f)"><path style=" stroke:none;fill-rule:nonzero;fill:#467404;fill-opacity:1;" d="M 96.683594 218.277344 L 142.894531 218.277344 L 142.894531 283.441406 L 96.683594 283.441406 Z M 96.683594 218.277344 "/></g></g><g clip-rule="nonzero" clip-path="url(#b15ffeb60d)"><path style=" stroke:none;fill-rule:nonzero;fill:#467404;fill-opacity:1;" d="M 96.683594 250.855469 L 142.878906 250.855469 L 142.878906 283.433594 L 96.683594 283.433594 Z M 96.683594 250.855469 "/></g></g></svg>