<svg xmlns="http://www.w3.org/2000/svg" xmlns:xlink="http://www.w3.org/1999/xlink" width="500" zoomAndPan="magnify" viewBox="0 0 375 374.999991" height="500" preserveAspectRatio="xMidYMid meet" version="1.2"><defs><clipPath id="59459511d1"><path d="M 100.410156 37.5 L 274.589844 37.5 L 274.589844 211.675781 L 100.410156 211.675781 Z M 100.410156 37.5 "/></clipPath><clipPath id="46646b6c55"><path d="M 187.5 37.5 C 139.402344 37.5 100.410156 76.492188 100.410156 124.589844 C 100.410156 172.6875 139.402344 211.675781 187.5 211.675781 C 235.597656 211.675781 274.589844 172.6875 274.589844 124.589844 C 274.589844 76.492188 235.597656 37.5 187.5 37.5 Z M 187.5 37.5 "/></clipPath><clipPath id="020474ed2b"><path d="M 45.390625 233.984375 L 329.625 233.984375 L 329.625 375 L 45.390625 375 Z M 45.390625 233.984375 "/></clipPath><clipPath id="a4ffbbdc97"><path d="M 140.179688 239.90625 C 154.707031 236.332031 171.316406 233.984375 187.578125 233.984375 C 203.835938 233.984375 219.480469 235.996094 233.898438 239.574219 C 234.207031 239.683594 234.511719 239.683594 234.820312 239.796875 C 288.964844 254.105469 328.84375 291.890625 329.609375 333.570312 L 329.609375 375 L 45.390625 375 L 45.390625 333.597656 C 46.15625 291.664062 85.421875 253.882812 140.179688 239.90625 Z M 140.179688 239.90625 "/></clipPath><clipPath id="581b934461"><path d="M 149.617188 119.679688 L 225.523438 119.679688 L 225.523438 172.199219 L 149.617188 172.199219 Z M 149.617188 119.679688 "/></clipPath><clipPath id="07039df941"><path d="M 158.617188 119.679688 L 216.382812 119.679688 C 218.769531 119.679688 221.058594 120.628906 222.746094 122.316406 C 224.433594 124.003906 225.382812 126.292969 225.382812 128.679688 L 225.382812 163.199219 C 225.382812 165.585938 224.433594 167.875 222.746094 169.5625 C 221.058594 171.25 218.769531 172.199219 216.382812 172.199219 L 158.617188 172.199219 C 153.648438 172.199219 149.617188 168.167969 149.617188 163.199219 L 149.617188 128.679688 C 149.617188 123.710938 153.648438 119.679688 158.617188 119.679688 Z M 158.617188 119.679688 "/></clipPath><clipPath id="f9faf2d025"><path d="M 141.191406 86.683594 L 233.605469 86.683594 L 233.605469 139.074219 L 141.191406 139.074219 Z M 141.191406 86.683594 "/></clipPath><clipPath id="da29721acf"><path d="M 203.574219 93.777344 L 230.835938 122.277344 C 233.585938 125.148438 234.355469 129.386719 232.792969 133.042969 C 231.230469 136.703125 227.636719 139.074219 223.660156 139.074219 L 151.339844 139.074219 C 147.363281 139.074219 143.769531 136.703125 142.207031 133.042969 C 140.644531 129.386719 141.414062 125.148438 144.164062 122.277344 L 171.425781 93.777344 C 175.625 89.394531 181.429688 86.914062 187.5 86.914062 C 193.570312 86.914062 199.375 89.394531 203.574219 93.777344 Z M 203.574219 93.777344 "/></clipPath><clipPath id="08d8e503f9"><path d="M 169.210938 146.410156 L 187.5 146.410156 L 187.5 172.203125 L 169.210938 172.203125 Z M 169.210938 146.410156 "/></clipPath><clipPath id="a47319bac3"><path d="M 175.210938 146.410156 L 181.5 146.410156 C 183.089844 146.410156 184.617188 147.042969 185.742188 148.167969 C 186.867188 149.292969 187.5 150.820312 187.5 152.410156 L 187.5 166.199219 C 187.5 167.789062 186.867188 169.316406 185.742188 170.441406 C 184.617188 171.566406 183.089844 172.199219 181.5 172.199219 L 175.210938 172.199219 C 173.621094 172.199219 172.09375 171.566406 170.96875 170.441406 C 169.84375 169.316406 169.210938 167.789062 169.210938 166.199219 L 169.210938 152.410156 C 169.210938 150.820312 169.84375 149.292969 170.96875 148.167969 C 172.09375 147.042969 173.621094 146.410156 175.210938 146.410156 Z M 175.210938 146.410156 "/></clipPath><clipPath id="672b62dec3"><path d="M 169.210938 159.304688 L 187.5 159.304688 L 187.5 172.199219 L 169.210938 172.199219 Z M 169.210938 159.304688 "/></clipPath></defs><g id="ed84a5dc2d"><g clip-rule="nonzero" clip-path="url(#59459511d1)"><g clip-rule="nonzero" clip-path="url(#46646b6c55)"><path style=" stroke:none;fill-rule:nonzero;fill:#545454;fill-opacity:1;" d="M 100.410156 37.5 L 274.589844 37.5 L 274.589844 211.675781 L 100.410156 211.675781 Z M 100.410156 37.5 "/></g></g><g clip-rule="nonzero" clip-path="url(#020474ed2b)"><g clip-rule="nonzero" clip-path="url(#a4ffbbdc97)"><path style=" stroke:none;fill-rule:nonzero;fill:#545454;fill-opacity:1;" d="M 45.390625 233.984375 L 329.625 233.984375 L 329.625 375 L 45.390625 375 Z M 45.390625 233.984375 "/></g></g><g clip-rule="nonzero" clip-path="url(#581b934461)"><g clip-rule="nonzero" clip-path="url(#07039df941)"><path style=" stroke:none;fill-rule:nonzero;fill:#ffffff;fill-opacity:1;" d="M 149.617188 119.679688 L 225.316406 119.679688 L 225.316406 172.199219 L 149.617188 172.199219 Z M 149.617188 119.679688 "/></g></g><g clip-rule="nonzero" clip-path="url(#f9faf2d025)"><g clip-rule="nonzero" clip-path="url(#da29721acf)"><path style=" stroke:none;fill-rule:nonzero;fill:#ffffff;fill-opacity:1;" d="M 128.089844 76.980469 L 246.945312 76.980469 L 246.945312 139.074219 L 128.089844 139.074219 Z M 128.089844 76.980469 "/></g></g><path style="fill:none;stroke-width:15;stroke-linecap:round;stroke-linejoin:miter;stroke:#ffffff;stroke-opacity:1;stroke-miterlimit:4;" d="M 7.500268 7.499291 L 25.307561 7.499291 " transform="matrix(0,0.75,-0.75,0,219.436968,89.949018)"/><g clip-rule="nonzero" clip-path="url(#08d8e503f9)"><g clip-rule="nonzero" clip-path="url(#a47319bac3)"><path style=" stroke:none;fill-rule:nonzero;fill:#545454;fill-opacity:1;" d="M 169.210938 146.410156 L 187.5 146.410156 L 187.5 172.203125 L 169.210938 172.203125 Z M 169.210938 146.410156 "/></g></g><g clip-rule="nonzero" clip-path="url(#672b62dec3)"><path style=" stroke:none;fill-rule:nonzero;fill:#545454;fill-opacity:1;" d="M 169.210938 159.304688 L 187.492188 159.304688 L 187.492188 172.199219 L 169.210938 172.199219 Z M 169.210938 159.304688 "/></g></g></svg>