<svg xmlns="http://www.w3.org/2000/svg" xmlns:xlink="http://www.w3.org/1999/xlink" width="500" zoomAndPan="magnify" viewBox="0 0 375 374.999991" height="500" preserveAspectRatio="xMidYMid meet" version="1.2"><defs><clipPath id="e9120e2fa9"><path d="M 100.410156 37.5 L 274.589844 37.5 L 274.589844 211.675781 L 100.410156 211.675781 Z M 100.410156 37.5 "/></clipPath><clipPath id="9de7032d7a"><path d="M 187.5 37.5 C 139.402344 37.5 100.410156 76.492188 100.410156 124.589844 C 100.410156 172.6875 139.402344 211.675781 187.5 211.675781 C 235.597656 211.675781 274.589844 172.6875 274.589844 124.589844 C 274.589844 76.492188 235.597656 37.5 187.5 37.5 Z M 187.5 37.5 "/></clipPath><clipPath id="41db7bcfd5"><path d="M 45.390625 233.984375 L 329.625 233.984375 L 329.625 375 L 45.390625 375 Z M 45.390625 233.984375 "/></clipPath><clipPath id="360babb075"><path d="M 140.179688 239.90625 C 154.707031 236.332031 171.316406 233.984375 187.578125 233.984375 C 203.835938 233.984375 219.480469 235.996094 233.898438 239.574219 C 234.207031 239.683594 234.511719 239.683594 234.820312 239.796875 C 288.964844 254.105469 328.84375 291.890625 329.609375 333.570312 L 329.609375 375 L 45.390625 375 L 45.390625 333.597656 C 46.15625 291.664062 85.421875 253.882812 140.179688 239.90625 Z M 140.179688 239.90625 "/></clipPath><clipPath id="e84d2046c8"><path d="M 180.371094 85.214844 L 237.0625 85.214844 L 237.0625 141.90625 L 180.371094 141.90625 Z M 180.371094 85.214844 "/></clipPath><clipPath id="fb3fa5e6bc"><path d="M 208.714844 85.214844 C 193.0625 85.214844 180.371094 97.90625 180.371094 113.5625 C 180.371094 129.214844 193.0625 141.90625 208.714844 141.90625 C 224.371094 141.90625 237.0625 129.214844 237.0625 113.5625 C 237.0625 97.90625 224.371094 85.214844 208.714844 85.214844 Z M 208.714844 85.214844 "/></clipPath><clipPath id="43e65f2e15"><path d="M 197.316406 102.164062 L 220.113281 102.164062 L 220.113281 124.960938 L 197.316406 124.960938 Z M 197.316406 102.164062 "/></clipPath><clipPath id="cf339c1c17"><path d="M 208.714844 102.164062 C 202.421875 102.164062 197.316406 107.265625 197.316406 113.5625 C 197.316406 119.855469 202.421875 124.960938 208.714844 124.960938 C 215.011719 124.960938 220.113281 119.855469 220.113281 113.5625 C 220.113281 107.265625 215.011719 102.164062 208.714844 102.164062 Z M 208.714844 102.164062 "/></clipPath></defs><g id="8aa19038f4"><g clip-rule="nonzero" clip-path="url(#e9120e2fa9)"><g clip-rule="nonzero" clip-path="url(#9de7032d7a)"><path style=" stroke:none;fill-rule:nonzero;fill:#545454;fill-opacity:1;" d="M 100.410156 37.5 L 274.589844 37.5 L 274.589844 211.675781 L 100.410156 211.675781 Z M 100.410156 37.5 "/></g></g><g clip-rule="nonzero" clip-path="url(#41db7bcfd5)"><g clip-rule="nonzero" clip-path="url(#360babb075)"><path style=" stroke:none;fill-rule:nonzero;fill:#545454;fill-opacity:1;" d="M 45.390625 233.984375 L 329.625 233.984375 L 329.625 375 L 45.390625 375 Z M 45.390625 233.984375 "/></g></g><path style="fill:none;stroke-width:15;stroke-linecap:round;stroke-linejoin:miter;stroke:#ffffff;stroke-opacity:1;stroke-miterlimit:4;" d="M 7.497622 7.499062 L 92.03095 7.49813 " transform="matrix(0.592181,-0.460241,0.460241,0.592181,137.936801,154.923974)"/><g clip-rule="nonzero" clip-path="url(#e84d2046c8)"><g clip-rule="nonzero" clip-path="url(#fb3fa5e6bc)"><path style=" stroke:none;fill-rule:nonzero;fill:#ffffff;fill-opacity:1;" d="M 180.371094 85.214844 L 237.0625 85.214844 L 237.0625 141.90625 L 180.371094 141.90625 Z M 180.371094 85.214844 "/></g></g><g clip-rule="nonzero" clip-path="url(#43e65f2e15)"><g clip-rule="nonzero" clip-path="url(#cf339c1c17)"><path style=" stroke:none;fill-rule:nonzero;fill:#545454;fill-opacity:1;" d="M 197.316406 102.164062 L 220.113281 102.164062 L 220.113281 124.960938 L 197.316406 124.960938 Z M 197.316406 102.164062 "/></g></g><path style="fill:none;stroke-width:15;stroke-linecap:round;stroke-linejoin:miter;stroke:#ffffff;stroke-opacity:1;stroke-miterlimit:4;" d="M 7.49963 7.49964 L 27.883512 7.497747 " transform="matrix(-0.451436,-0.588934,0.588934,-0.451436,172.093808,164.493798)"/><path style="fill:none;stroke-width:15;stroke-linecap:round;stroke-linejoin:miter;stroke:#ffffff;stroke-opacity:1;stroke-miterlimit:4;" d="M 7.50084 7.497758 L 27.881519 7.500043 " transform="matrix(-0.451436,-0.588934,0.588934,-0.451436,157.529056,175.024911)"/></g></svg>