<svg xmlns="http://www.w3.org/2000/svg" xmlns:xlink="http://www.w3.org/1999/xlink" width="500" zoomAndPan="magnify" viewBox="0 0 375 374.999991" height="500" preserveAspectRatio="xMidYMid meet" version="1.2"><defs><clipPath id="5d92782e45"><path d="M 159.832031 177.863281 L 308.828125 177.863281 L 308.828125 280.957031 L 159.832031 280.957031 Z M 159.832031 177.863281 "/></clipPath><clipPath id="ece4d9d479"><path d="M 168.832031 177.863281 L 299.554688 177.863281 C 304.523438 177.863281 308.554688 181.894531 308.554688 186.863281 L 308.554688 271.957031 C 308.554688 276.925781 304.523438 280.957031 299.554688 280.957031 L 168.832031 280.957031 C 163.859375 280.957031 159.832031 276.925781 159.832031 271.957031 L 159.832031 186.863281 C 159.832031 181.894531 163.859375 177.863281 168.832031 177.863281 Z M 168.832031 177.863281 "/></clipPath><clipPath id="8af97f625f"><path d="M 144.238281 114.042969 L 324 114.042969 L 324 215.9375 L 144.238281 215.9375 Z M 144.238281 114.042969 "/></clipPath><clipPath id="c164f4df21"><path d="M 266.855469 128.1875 L 318.144531 181.792969 C 323.734375 187.636719 325.296875 196.246094 322.121094 203.679688 C 318.945312 211.113281 311.640625 215.9375 303.558594 215.9375 L 164.828125 215.9375 C 156.742188 215.9375 149.4375 211.113281 146.261719 203.679688 C 143.085938 196.246094 144.652344 187.636719 150.242188 181.792969 L 201.527344 128.1875 C 210.054688 119.273438 221.855469 114.230469 234.191406 114.230469 C 246.527344 114.230469 258.328125 119.273438 266.855469 128.1875 Z M 266.855469 128.1875 "/></clipPath><clipPath id="19b5f19d9d"><path d="M 210.960938 239.679688 L 246.863281 239.679688 L 246.863281 281 L 210.960938 281 Z M 210.960938 239.679688 "/></clipPath><clipPath id="b9440bad11"><path d="M 219.210938 239.679688 L 238.613281 239.679688 C 243.167969 239.679688 246.863281 243.371094 246.863281 247.929688 L 246.863281 272.707031 C 246.863281 277.261719 243.167969 280.957031 238.613281 280.957031 L 219.210938 280.957031 C 214.65625 280.957031 210.960938 277.261719 210.960938 272.707031 L 210.960938 247.929688 C 210.960938 243.371094 214.65625 239.679688 219.210938 239.679688 Z M 219.210938 239.679688 "/></clipPath><clipPath id="07e567eac6"><path d="M 210.960938 255.644531 L 246.863281 255.644531 L 246.863281 280.957031 L 210.960938 280.957031 Z M 210.960938 255.644531 "/></clipPath><clipPath id="b2741620ee"><path d="M 130.941406 212.417969 L 229.996094 212.417969 L 229.996094 280.957031 L 130.941406 280.957031 Z M 130.941406 212.417969 "/></clipPath><clipPath id="c38b3d2f55"><path d="M 139.941406 212.417969 L 220.816406 212.417969 C 225.785156 212.417969 229.816406 216.449219 229.816406 221.417969 L 229.816406 271.957031 C 229.816406 276.925781 225.785156 280.957031 220.816406 280.957031 L 139.941406 280.957031 C 134.96875 280.957031 130.941406 276.925781 130.941406 271.957031 L 130.941406 221.417969 C 130.941406 216.449219 134.96875 212.417969 139.941406 212.417969 Z M 139.941406 212.417969 "/></clipPath><clipPath id="1baf60b1c9"><path d="M 121.207031 170.304688 L 239.597656 170.304688 L 239.597656 237.730469 L 121.207031 237.730469 Z M 121.207031 170.304688 "/></clipPath><clipPath id="d06e35d233"><path d="M 202.671875 179.996094 L 235.613281 214.425781 C 239.425781 218.414062 240.492188 224.289062 238.328125 229.363281 C 236.160156 234.4375 231.171875 237.730469 225.65625 237.730469 L 135.097656 237.730469 C 129.582031 237.730469 124.597656 234.4375 122.429688 229.363281 C 120.261719 224.289062 121.328125 218.414062 125.144531 214.425781 L 158.082031 179.996094 C 163.902344 173.914062 171.957031 170.472656 180.378906 170.472656 C 188.796875 170.472656 196.851562 173.914062 202.671875 179.996094 Z M 202.671875 179.996094 "/></clipPath><clipPath id="c24e9e95fe"><path d="M 163.632812 247.304688 L 187.5 247.304688 L 187.5 280.960938 L 163.632812 280.960938 Z M 163.632812 247.304688 "/></clipPath><clipPath id="c70a8fb199"><path d="M 171.882812 247.304688 L 179.25 247.304688 C 183.804688 247.304688 187.5 250.996094 187.5 255.554688 L 187.5 272.707031 C 187.5 277.261719 183.804688 280.957031 179.25 280.957031 L 171.882812 280.957031 C 167.328125 280.957031 163.632812 277.261719 163.632812 272.707031 L 163.632812 255.554688 C 163.632812 250.996094 167.328125 247.304688 171.882812 247.304688 Z M 171.882812 247.304688 "/></clipPath><clipPath id="e80639e2d0"><path d="M 163.632812 264.128906 L 187.5 264.128906 L 187.5 280.957031 L 163.632812 280.957031 Z M 163.632812 264.128906 "/></clipPath><clipPath id="60d32a8016"><path d="M 58.027344 198.402344 L 177.34375 198.402344 L 177.34375 280.957031 L 58.027344 280.957031 Z M 58.027344 198.402344 "/></clipPath><clipPath id="9efb994b7c"><path d="M 67.027344 198.402344 L 168.125 198.402344 C 173.09375 198.402344 177.125 202.429688 177.125 207.402344 L 177.125 271.957031 C 177.125 276.925781 173.09375 280.957031 168.125 280.957031 L 67.027344 280.957031 C 62.058594 280.957031 58.027344 276.925781 58.027344 271.957031 L 58.027344 207.402344 C 58.027344 202.429688 62.058594 198.402344 67.027344 198.402344 Z M 67.027344 198.402344 "/></clipPath><clipPath id="2c379d5b42"><path d="M 43.253906 145.386719 L 191.957031 145.386719 L 191.957031 228.886719 L 43.253906 228.886719 Z M 43.253906 145.386719 "/></clipPath><clipPath id="1f6ced7cde"><path d="M 140.90625 155.664062 L 187.628906 204.5 C 191.621094 208.671875 192.738281 214.824219 190.472656 220.132812 C 188.203125 225.445312 182.984375 228.886719 177.210938 228.886719 L 57.941406 228.886719 C 52.167969 228.886719 46.949219 225.445312 44.679688 220.132812 C 42.414062 214.824219 43.53125 208.671875 47.523438 204.5 L 94.246094 155.664062 C 100.335938 149.296875 108.765625 145.699219 117.578125 145.699219 C 126.386719 145.699219 134.816406 149.296875 140.90625 155.664062 Z M 140.90625 155.664062 "/></clipPath><clipPath id="55bfc1973a"><path d="M 88.828125 240.421875 L 117.578125 240.421875 L 117.578125 280.960938 L 88.828125 280.960938 Z M 88.828125 240.421875 "/></clipPath><clipPath id="60d2685be9"><path d="M 97.078125 240.421875 L 109.328125 240.421875 C 111.515625 240.421875 113.613281 241.289062 115.160156 242.835938 C 116.707031 244.382812 117.578125 246.484375 117.578125 248.671875 L 117.578125 272.707031 C 117.578125 274.894531 116.707031 276.992188 115.160156 278.539062 C 113.613281 280.085938 111.515625 280.957031 109.328125 280.957031 L 97.078125 280.957031 C 94.890625 280.957031 92.792969 280.085938 91.242188 278.539062 C 89.695312 276.992188 88.828125 274.894531 88.828125 272.707031 L 88.828125 248.671875 C 88.828125 246.484375 89.695312 244.382812 91.242188 242.835938 C 92.792969 241.289062 94.890625 240.421875 97.078125 240.421875 Z M 97.078125 240.421875 "/></clipPath><clipPath id="152ee9e11d"><path d="M 88.828125 260.6875 L 117.578125 260.6875 L 117.578125 280.957031 L 88.828125 280.957031 Z M 88.828125 260.6875 "/></clipPath></defs><g id="b6ce77995d"><g clip-rule="nonzero" clip-path="url(#5d92782e45)"><g clip-rule="nonzero" clip-path="url(#ece4d9d479)"><path style=" stroke:none;fill-rule:nonzero;fill:#467404;fill-opacity:1;" d="M 159.832031 177.863281 L 308.425781 177.863281 L 308.425781 280.957031 L 159.832031 280.957031 Z M 159.832031 177.863281 "/></g></g><g clip-rule="nonzero" clip-path="url(#8af97f625f)"><g clip-rule="nonzero" clip-path="url(#c164f4df21)"><path style=" stroke:none;fill-rule:nonzero;fill:#467404;fill-opacity:1;" d="M 117.578125 94.042969 L 350.882812 94.042969 L 350.882812 215.9375 L 117.578125 215.9375 Z M 117.578125 94.042969 "/></g></g><path style="fill:none;stroke-width:29;stroke-linecap:round;stroke-linejoin:miter;stroke:#467404;stroke-opacity:1;stroke-miterlimit:4;" d="M 14.500505 14.497539 L 49.897536 14.497539 " transform="matrix(0,0.74545,-0.74545,0,296.721254,119.499191)"/><g clip-rule="nonzero" clip-path="url(#19b5f19d9d)"><g clip-rule="nonzero" clip-path="url(#b9440bad11)"><path style=" stroke:none;fill-rule:nonzero;fill:#7dd111;fill-opacity:1;" d="M 210.960938 239.679688 L 246.863281 239.679688 L 246.863281 280.90625 L 210.960938 280.90625 Z M 210.960938 239.679688 "/></g></g><g clip-rule="nonzero" clip-path="url(#07e567eac6)"><path style=" stroke:none;fill-rule:nonzero;fill:#7dd111;fill-opacity:1;" d="M 210.960938 255.644531 L 246.847656 255.644531 L 246.847656 280.957031 L 210.960938 280.957031 Z M 210.960938 255.644531 "/></g><g clip-rule="nonzero" clip-path="url(#b2741620ee)"><g clip-rule="nonzero" clip-path="url(#c38b3d2f55)"><path style=" stroke:none;fill-rule:nonzero;fill:#5ea400;fill-opacity:1;" d="M 130.941406 212.417969 L 229.730469 212.417969 L 229.730469 280.957031 L 130.941406 280.957031 Z M 130.941406 212.417969 "/></g></g><g clip-rule="nonzero" clip-path="url(#1baf60b1c9)"><g clip-rule="nonzero" clip-path="url(#d06e35d233)"><path style=" stroke:none;fill-rule:nonzero;fill:#5ea400;fill-opacity:1;" d="M 102.847656 156.695312 L 257.957031 156.695312 L 257.957031 237.730469 L 102.847656 237.730469 Z M 102.847656 156.695312 "/></g></g><path style="fill:none;stroke-width:20;stroke-linecap:round;stroke-linejoin:miter;stroke:#5ea400;stroke-opacity:1;stroke-miterlimit:4;" d="M 9.998455 10.000705 L 32.810956 10.000705 " transform="matrix(0,0.75,-0.75,0,222.219278,173.614441)"/><g clip-rule="nonzero" clip-path="url(#c24e9e95fe)"><g clip-rule="nonzero" clip-path="url(#c70a8fb199)"><path style=" stroke:none;fill-rule:nonzero;fill:#467404;fill-opacity:1;" d="M 163.632812 247.304688 L 187.5 247.304688 L 187.5 280.960938 L 163.632812 280.960938 Z M 163.632812 247.304688 "/></g></g><g clip-rule="nonzero" clip-path="url(#e80639e2d0)"><path style=" stroke:none;fill-rule:nonzero;fill:#467404;fill-opacity:1;" d="M 163.632812 264.128906 L 187.492188 264.128906 L 187.492188 280.957031 L 163.632812 280.957031 Z M 163.632812 264.128906 "/></g><g clip-rule="nonzero" clip-path="url(#60d32a8016)"><g clip-rule="nonzero" clip-path="url(#9efb994b7c)"><path style=" stroke:none;fill-rule:nonzero;fill:#7dd111;fill-opacity:1;" d="M 58.027344 198.402344 L 177.019531 198.402344 L 177.019531 280.957031 L 58.027344 280.957031 Z M 58.027344 198.402344 "/></g></g><g clip-rule="nonzero" clip-path="url(#2c379d5b42)"><g clip-rule="nonzero" clip-path="url(#1f6ced7cde)"><path style=" stroke:none;fill-rule:nonzero;fill:#7dd111;fill-opacity:1;" d="M 24.191406 131.277344 L 211.023438 131.277344 L 211.023438 228.886719 L 24.191406 228.886719 Z M 24.191406 131.277344 "/></g></g><path style="fill:none;stroke-width:24;stroke-linecap:round;stroke-linejoin:miter;stroke:#7dd111;stroke-opacity:1;stroke-miterlimit:4;" d="M 12.001497 11.997903 L 39.569207 11.997903 " transform="matrix(0,0.75,-0.75,0,167.939833,151.66294)"/><g clip-rule="nonzero" clip-path="url(#55bfc1973a)"><g clip-rule="nonzero" clip-path="url(#60d2685be9)"><path style=" stroke:none;fill-rule:nonzero;fill:#467404;fill-opacity:1;" d="M 88.828125 240.421875 L 117.578125 240.421875 L 117.578125 280.960938 L 88.828125 280.960938 Z M 88.828125 240.421875 "/></g></g><g clip-rule="nonzero" clip-path="url(#152ee9e11d)"><path style=" stroke:none;fill-rule:nonzero;fill:#467404;fill-opacity:1;" d="M 88.828125 260.6875 L 117.566406 260.6875 L 117.566406 280.957031 L 88.828125 280.957031 Z M 88.828125 260.6875 "/></g></g></svg>