<svg xmlns="http://www.w3.org/2000/svg" xmlns:xlink="http://www.w3.org/1999/xlink" width="700" zoomAndPan="magnify" viewBox="0 0 525 374.999991" height="500" preserveAspectRatio="xMidYMid meet" version="1.2"><defs><clipPath id="1988078ba2"><path d="M 261.277344 113.28125 L 451.914062 113.28125 L 451.914062 245.183594 L 261.277344 245.183594 Z M 261.277344 113.28125 "/></clipPath><clipPath id="7d65393304"><path d="M 269.152344 113.28125 L 443.691406 113.28125 C 448.039062 113.28125 451.566406 116.808594 451.566406 121.15625 L 451.566406 237.308594 C 451.566406 241.65625 448.039062 245.183594 443.691406 245.183594 L 269.152344 245.183594 C 264.800781 245.183594 261.277344 241.65625 261.277344 237.308594 L 261.277344 121.15625 C 261.277344 116.808594 264.800781 113.28125 269.152344 113.28125 Z M 269.152344 113.28125 "/></clipPath><clipPath id="45cad2dada"><path d="M 219.398438 15.175781 L 493.539062 15.175781 L 493.539062 161.992188 L 219.398438 161.992188 Z M 219.398438 15.175781 "/></clipPath><clipPath id="b95ffc0dd7"><path d="M 371.390625 21.683594 L 490.65625 146.34375 C 493.21875 149.023438 493.9375 152.96875 492.480469 156.375 C 491.023438 159.78125 487.675781 161.992188 483.972656 161.992188 L 228.871094 161.992188 C 225.164062 161.992188 221.816406 159.78125 220.363281 156.375 C 218.90625 152.96875 219.625 149.023438 222.183594 146.34375 L 341.449219 21.683594 C 345.359375 17.597656 350.765625 15.289062 356.421875 15.289062 C 362.074219 15.289062 367.484375 17.597656 371.390625 21.683594 Z M 371.390625 21.683594 "/></clipPath><clipPath id="67cf7beeb6"><path d="M 310.488281 180.417969 L 356.421875 180.417969 L 356.421875 245.191406 L 310.488281 245.191406 Z M 310.488281 180.417969 "/></clipPath><clipPath id="e88b111026"><path d="M 314.425781 180.417969 L 352.484375 180.417969 C 354.65625 180.417969 356.421875 182.179688 356.421875 184.355469 L 356.421875 241.246094 C 356.421875 243.421875 354.65625 245.183594 352.484375 245.183594 L 314.425781 245.183594 C 312.25 245.183594 310.488281 243.421875 310.488281 241.246094 L 310.488281 184.355469 C 310.488281 182.179688 312.25 180.417969 314.425781 180.417969 Z M 314.425781 180.417969 "/></clipPath><clipPath id="b9d353376f"><path d="M 310.488281 212.800781 L 356.421875 212.800781 L 356.421875 245.183594 L 310.488281 245.183594 Z M 310.488281 212.800781 "/></clipPath><clipPath id="1ab613dcea"><path d="M 184.925781 137.847656 L 340 137.847656 L 340 245.183594 L 184.925781 245.183594 Z M 184.925781 137.847656 "/></clipPath><clipPath id="12f4ed5f74"><path d="M 192.800781 137.847656 L 331.898438 137.847656 C 336.246094 137.847656 339.773438 141.375 339.773438 145.722656 L 339.773438 237.308594 C 339.773438 241.65625 336.246094 245.183594 331.898438 245.183594 L 192.800781 245.183594 C 188.449219 245.183594 184.925781 241.65625 184.925781 237.308594 L 184.925781 145.722656 C 184.925781 141.375 188.449219 137.847656 192.800781 137.847656 Z M 192.800781 137.847656 "/></clipPath><clipPath id="d1c02af931"><path d="M 152.332031 59.003906 L 372.441406 59.003906 L 372.441406 177.488281 L 152.332031 177.488281 Z M 152.332031 59.003906 "/></clipPath><clipPath id="2491965837"><path d="M 276.414062 65.277344 L 369.703125 162.785156 C 372.109375 165.300781 372.78125 169.007812 371.414062 172.210938 C 370.046875 175.410156 366.902344 177.488281 363.421875 177.488281 L 161.273438 177.488281 C 157.792969 177.488281 154.648438 175.410156 153.28125 172.210938 C 151.914062 169.007812 152.589844 165.300781 154.996094 162.785156 L 248.285156 65.277344 C 251.957031 61.441406 257.039062 59.269531 262.347656 59.269531 C 267.660156 59.269531 272.742188 61.441406 276.414062 65.277344 Z M 276.414062 65.277344 "/></clipPath><clipPath id="4f960448f0"><path d="M 224.96875 192.480469 L 262.347656 192.480469 L 262.347656 245.191406 L 224.96875 245.191406 Z M 224.96875 192.480469 "/></clipPath><clipPath id="85b996f222"><path d="M 228.90625 192.480469 L 258.410156 192.480469 C 259.457031 192.480469 260.457031 192.894531 261.195312 193.632812 C 261.933594 194.371094 262.347656 195.375 262.347656 196.417969 L 262.347656 241.246094 C 262.347656 242.289062 261.933594 243.292969 261.195312 244.03125 C 260.457031 244.769531 259.457031 245.183594 258.410156 245.183594 L 228.90625 245.183594 C 227.863281 245.183594 226.863281 244.769531 226.125 244.03125 C 225.386719 243.292969 224.96875 242.289062 224.96875 241.246094 L 224.96875 196.417969 C 224.96875 195.375 225.386719 194.371094 226.125 193.632812 C 226.863281 192.894531 227.863281 192.480469 228.90625 192.480469 Z M 228.90625 192.480469 "/></clipPath><clipPath id="4c7d341ec6"><path d="M 224.96875 218.832031 L 262.347656 218.832031 L 262.347656 245.183594 L 224.96875 245.183594 Z M 224.96875 218.832031 "/></clipPath><clipPath id="7a49259e69"><path d="M 68.398438 125.566406 L 241 125.566406 L 241 245.183594 L 68.398438 245.183594 Z M 68.398438 125.566406 "/></clipPath><clipPath id="3b50d7350a"><path d="M 76.273438 125.566406 L 233.09375 125.566406 C 237.441406 125.566406 240.96875 129.089844 240.96875 133.441406 L 240.96875 237.308594 C 240.96875 241.65625 237.441406 245.183594 233.09375 245.183594 L 76.273438 245.183594 C 71.925781 245.183594 68.398438 241.65625 68.398438 237.308594 L 68.398438 133.441406 C 68.398438 129.089844 71.925781 125.566406 76.273438 125.566406 Z M 76.273438 125.566406 "/></clipPath><clipPath id="de8c26ce0d"><path d="M 31 37 L 278.480469 37 L 278.480469 169.738281 L 31 169.738281 Z M 31 37 "/></clipPath><clipPath id="cdff617b8b"><path d="M 168.746094 43.007812 L 275.933594 155.039062 C 278.339844 157.554688 279.011719 161.261719 277.644531 164.464844 C 276.277344 167.664062 273.132812 169.738281 269.652344 169.738281 L 39.714844 169.738281 C 36.234375 169.738281 33.089844 167.664062 31.722656 164.464844 C 30.355469 161.261719 31.03125 157.554688 33.433594 155.039062 L 140.621094 43.007812 C 144.292969 39.167969 149.371094 37 154.683594 37 C 159.996094 37 165.074219 39.167969 168.746094 43.007812 Z M 168.746094 43.007812 "/></clipPath><clipPath id="8012f4c85c"><path d="M 113.027344 186.449219 L 154.683594 186.449219 L 154.683594 245.191406 L 113.027344 245.191406 Z M 113.027344 186.449219 "/></clipPath><clipPath id="7e5cf4ebef"><path d="M 116.964844 186.449219 L 150.746094 186.449219 C 151.789062 186.449219 152.792969 186.863281 153.53125 187.601562 C 154.269531 188.339844 154.683594 189.34375 154.683594 190.386719 L 154.683594 241.246094 C 154.683594 242.289062 154.269531 243.292969 153.53125 244.03125 C 152.792969 244.769531 151.789062 245.183594 150.746094 245.183594 L 116.964844 245.183594 C 115.921875 245.183594 114.917969 244.769531 114.179688 244.03125 C 113.441406 243.292969 113.027344 242.289062 113.027344 241.246094 L 113.027344 190.386719 C 113.027344 189.34375 113.441406 188.339844 114.179688 187.601562 C 114.917969 186.863281 115.921875 186.449219 116.964844 186.449219 Z M 116.964844 186.449219 "/></clipPath><clipPath id="f25d764cbe"><path d="M 113.027344 215.816406 L 154.683594 215.816406 L 154.683594 245.183594 L 113.027344 245.183594 Z M 113.027344 215.816406 "/></clipPath></defs><g id="b49202dfeb"><g style="fill:#333333;fill-opacity:1;"><g transform="translate(61.658491, 364.86128)"><path style="stroke:none" d="M 1.796875 0 L 1.796875 -12.3125 L 6.484375 -12.3125 C 7.335938 -12.3125 8.082031 -12.148438 8.71875 -11.828125 C 9.351562 -11.503906 9.84375 -11.046875 10.1875 -10.453125 C 10.539062 -9.867188 10.71875 -9.164062 10.71875 -8.34375 C 10.71875 -7.351562 10.457031 -6.53125 9.9375 -5.875 C 9.425781 -5.226562 8.722656 -4.796875 7.828125 -4.578125 L 10.921875 0 L 9.046875 0 L 6.046875 -4.40625 L 3.34375 -4.40625 L 3.34375 0 Z M 3.34375 -5.890625 L 6.3125 -5.890625 C 7.21875 -5.890625 7.914062 -6.101562 8.40625 -6.53125 C 8.894531 -6.957031 9.140625 -7.5625 9.140625 -8.34375 C 9.140625 -9.132812 8.894531 -9.742188 8.40625 -10.171875 C 7.914062 -10.609375 7.21875 -10.828125 6.3125 -10.828125 L 3.34375 -10.828125 Z M 3.34375 -5.890625 "/></g></g><g style="fill:#333333;fill-opacity:1;"><g transform="translate(78.36067, 364.86128)"><path style="stroke:none" d="M 1.796875 0 L 1.796875 -12.3125 L 9.265625 -12.3125 L 9.265625 -10.859375 L 3.34375 -10.859375 L 3.34375 -6.984375 L 8.828125 -6.984375 L 8.828125 -5.5625 L 3.34375 -5.5625 L 3.34375 -1.4375 L 9.453125 -1.4375 L 9.453125 0 Z M 1.796875 0 "/></g></g><g style="fill:#333333;fill-opacity:1;"><g transform="translate(93.691512, 364.86128)"><path style="stroke:none" d="M 1.796875 0 L 1.796875 -12.3125 L 3.25 -12.3125 L 10.0625 -2.671875 L 10.0625 -12.3125 L 11.5625 -12.3125 L 11.5625 0 L 10.125 0 L 3.328125 -9.640625 L 3.328125 0 Z M 1.796875 0 "/></g></g><g style="fill:#333333;fill-opacity:1;"><g transform="translate(111.782622, 364.86128)"><path style="stroke:none" d="M 4.765625 0 L 4.765625 -10.828125 L 0.59375 -10.828125 L 0.59375 -12.3125 L 10.453125 -12.3125 L 10.453125 -10.828125 L 6.3125 -10.828125 L 6.3125 0 Z M 4.765625 0 "/></g></g><g style="fill:#333333;fill-opacity:1;"><g transform="translate(127.588162, 364.86128)"><path style="stroke:none" d="M 0.296875 0 L 5.359375 -12.3125 L 6.796875 -12.3125 L 11.859375 0 L 10.234375 0 L 9.078125 -2.796875 L 3.078125 -2.796875 L 1.953125 0 Z M 3.671875 -4.234375 L 8.484375 -4.234375 L 6.078125 -10.140625 Z M 3.671875 -4.234375 "/></g></g><g style="fill:#333333;fill-opacity:1;"><g transform="translate(144.483739, 364.86128)"><path style="stroke:none" d="M 1.796875 0 L 1.796875 -12.3125 L 3.34375 -12.3125 L 3.34375 -1.484375 L 9.3125 -1.484375 L 9.3125 0 Z M 1.796875 0 "/></g></g><g style="fill:#333333;fill-opacity:1;"><g transform="translate(159.076153, 364.86128)"><path style="stroke:none" d=""/></g></g><g style="fill:#333333;fill-opacity:1;"><g transform="translate(168.165648, 364.86128)"><path style="stroke:none" d="M 1.796875 0 L 1.796875 -12.3125 L 3.234375 -12.3125 L 8.0625 -5.015625 L 12.875 -12.3125 L 14.3125 -12.3125 L 14.3125 0 L 12.765625 0 L 12.765625 -9.40625 L 8.6875 -3.265625 L 7.421875 -3.265625 L 3.34375 -9.421875 L 3.34375 0 Z M 1.796875 0 "/></g></g><g style="fill:#333333;fill-opacity:1;"><g transform="translate(188.999431, 364.86128)"><path style="stroke:none" d="M 0.296875 0 L 5.359375 -12.3125 L 6.796875 -12.3125 L 11.859375 0 L 10.234375 0 L 9.078125 -2.796875 L 3.078125 -2.796875 L 1.953125 0 Z M 3.671875 -4.234375 L 8.484375 -4.234375 L 6.078125 -10.140625 Z M 3.671875 -4.234375 "/></g></g><g style="fill:#333333;fill-opacity:1;"><g transform="translate(205.895009, 364.86128)"><path style="stroke:none" d="M 1.796875 0 L 1.796875 -12.3125 L 3.25 -12.3125 L 10.0625 -2.671875 L 10.0625 -12.3125 L 11.5625 -12.3125 L 11.5625 0 L 10.125 0 L 3.328125 -9.640625 L 3.328125 0 Z M 1.796875 0 "/></g></g><g style="fill:#333333;fill-opacity:1;"><g transform="translate(223.986118, 364.86128)"><path style="stroke:none" d="M 0.296875 0 L 5.359375 -12.3125 L 6.796875 -12.3125 L 11.859375 0 L 10.234375 0 L 9.078125 -2.796875 L 3.078125 -2.796875 L 1.953125 0 Z M 3.671875 -4.234375 L 8.484375 -4.234375 L 6.078125 -10.140625 Z M 3.671875 -4.234375 "/></g></g><g style="fill:#333333;fill-opacity:1;"><g transform="translate(240.881695, 364.86128)"><path style="stroke:none" d="M 7.28125 0.234375 C 6.375 0.234375 5.539062 0.078125 4.78125 -0.234375 C 4.019531 -0.554688 3.359375 -1 2.796875 -1.5625 C 2.234375 -2.132812 1.796875 -2.8125 1.484375 -3.59375 C 1.171875 -4.375 1.015625 -5.226562 1.015625 -6.15625 C 1.015625 -7.082031 1.164062 -7.929688 1.46875 -8.703125 C 1.78125 -9.472656 2.21875 -10.144531 2.78125 -10.71875 C 3.34375 -11.289062 4 -11.734375 4.75 -12.046875 C 5.507812 -12.367188 6.34375 -12.53125 7.25 -12.53125 C 8.1875 -12.53125 9.050781 -12.359375 9.84375 -12.015625 C 10.644531 -11.679688 11.332031 -11.207031 11.90625 -10.59375 C 12.488281 -9.988281 12.910156 -9.28125 13.171875 -8.46875 L 11.484375 -8.46875 C 11.097656 -9.269531 10.539062 -9.890625 9.8125 -10.328125 C 9.082031 -10.765625 8.242188 -10.984375 7.296875 -10.984375 C 6.378906 -10.984375 5.566406 -10.773438 4.859375 -10.359375 C 4.148438 -9.953125 3.597656 -9.382812 3.203125 -8.65625 C 2.804688 -7.9375 2.609375 -7.101562 2.609375 -6.15625 C 2.609375 -5.207031 2.804688 -4.367188 3.203125 -3.640625 C 3.609375 -2.910156 4.164062 -2.335938 4.875 -1.921875 C 5.582031 -1.515625 6.394531 -1.3125 7.3125 -1.3125 C 8.144531 -1.3125 8.882812 -1.472656 9.53125 -1.796875 C 10.175781 -2.128906 10.695312 -2.585938 11.09375 -3.171875 C 11.5 -3.753906 11.753906 -4.429688 11.859375 -5.203125 L 6.859375 -5.203125 L 6.859375 -6.6875 L 13.53125 -6.6875 C 13.5625 -5.332031 13.3125 -4.132812 12.78125 -3.09375 C 12.257812 -2.0625 11.523438 -1.25 10.578125 -0.65625 C 9.640625 -0.0625 8.539062 0.234375 7.28125 0.234375 Z M 7.28125 0.234375 "/></g></g><g style="fill:#333333;fill-opacity:1;"><g transform="translate(260.115578, 364.86128)"><path style="stroke:none" d="M 1.796875 0 L 1.796875 -12.3125 L 9.265625 -12.3125 L 9.265625 -10.859375 L 3.34375 -10.859375 L 3.34375 -6.984375 L 8.828125 -6.984375 L 8.828125 -5.5625 L 3.34375 -5.5625 L 3.34375 -1.4375 L 9.453125 -1.4375 L 9.453125 0 Z M 1.796875 0 "/></g></g><g style="fill:#333333;fill-opacity:1;"><g transform="translate(275.44642, 364.86128)"><path style="stroke:none" d="M 1.796875 0 L 1.796875 -12.3125 L 3.234375 -12.3125 L 8.0625 -5.015625 L 12.875 -12.3125 L 14.3125 -12.3125 L 14.3125 0 L 12.765625 0 L 12.765625 -9.40625 L 8.6875 -3.265625 L 7.421875 -3.265625 L 3.34375 -9.421875 L 3.34375 0 Z M 1.796875 0 "/></g></g><g style="fill:#333333;fill-opacity:1;"><g transform="translate(296.280203, 364.86128)"><path style="stroke:none" d="M 1.796875 0 L 1.796875 -12.3125 L 9.265625 -12.3125 L 9.265625 -10.859375 L 3.34375 -10.859375 L 3.34375 -6.984375 L 8.828125 -6.984375 L 8.828125 -5.5625 L 3.34375 -5.5625 L 3.34375 -1.4375 L 9.453125 -1.4375 L 9.453125 0 Z M 1.796875 0 "/></g></g><g style="fill:#333333;fill-opacity:1;"><g transform="translate(311.611045, 364.86128)"><path style="stroke:none" d="M 1.796875 0 L 1.796875 -12.3125 L 3.25 -12.3125 L 10.0625 -2.671875 L 10.0625 -12.3125 L 11.5625 -12.3125 L 11.5625 0 L 10.125 0 L 3.328125 -9.640625 L 3.328125 0 Z M 1.796875 0 "/></g></g><g style="fill:#333333;fill-opacity:1;"><g transform="translate(329.702155, 364.86128)"><path style="stroke:none" d="M 4.765625 0 L 4.765625 -10.828125 L 0.59375 -10.828125 L 0.59375 -12.3125 L 10.453125 -12.3125 L 10.453125 -10.828125 L 6.3125 -10.828125 L 6.3125 0 Z M 4.765625 0 "/></g></g><g style="fill:#333333;fill-opacity:1;"><g transform="translate(345.507695, 364.86128)"><path style="stroke:none" d=""/></g></g><g style="fill:#333333;fill-opacity:1;"><g transform="translate(354.59719, 364.86128)"><path style="stroke:none" d="M 4.328125 0 L 0.328125 -12.3125 L 1.953125 -12.3125 L 3.65625 -7 L 5.09375 -2.484375 L 8.734375 -12.3125 L 10.203125 -12.3125 L 13.828125 -2.46875 L 17 -12.3125 L 18.609375 -12.3125 L 14.609375 0 L 13.171875 0 L 11.5 -4.484375 L 9.453125 -9.96875 L 5.765625 0 Z M 4.328125 0 "/></g></g><g style="fill:#333333;fill-opacity:1;"><g transform="translate(378.279144, 364.86128)"><path style="stroke:none" d="M 1.796875 0 L 1.796875 -12.3125 L 9.265625 -12.3125 L 9.265625 -10.859375 L 3.34375 -10.859375 L 3.34375 -6.984375 L 8.828125 -6.984375 L 8.828125 -5.5625 L 3.34375 -5.5625 L 3.34375 -1.4375 L 9.453125 -1.4375 L 9.453125 0 Z M 1.796875 0 "/></g></g><g style="fill:#333333;fill-opacity:1;"><g transform="translate(393.609986, 364.86128)"><path style="stroke:none" d="M 1.796875 0 L 1.796875 -12.3125 L 6.5625 -12.3125 C 7.738281 -12.3125 8.679688 -12.015625 9.390625 -11.421875 C 10.097656 -10.828125 10.453125 -10.03125 10.453125 -9.03125 C 10.453125 -8.4375 10.3125 -7.910156 10.03125 -7.453125 C 9.75 -6.992188 9.359375 -6.632812 8.859375 -6.375 C 9.492188 -6.125 9.976562 -5.742188 10.3125 -5.234375 C 10.644531 -4.734375 10.8125 -4.140625 10.8125 -3.453125 C 10.8125 -2.378906 10.453125 -1.535156 9.734375 -0.921875 C 9.015625 -0.304688 8.03125 0 6.78125 0 Z M 3.34375 -1.4375 L 6.75 -1.4375 C 7.550781 -1.4375 8.164062 -1.617188 8.59375 -1.984375 C 9.019531 -2.347656 9.234375 -2.859375 9.234375 -3.515625 C 9.234375 -4.171875 9.015625 -4.675781 8.578125 -5.03125 C 8.140625 -5.394531 7.523438 -5.578125 6.734375 -5.578125 L 3.34375 -5.578125 Z M 3.34375 -6.984375 L 6.515625 -6.984375 C 7.285156 -6.984375 7.867188 -7.148438 8.265625 -7.484375 C 8.671875 -7.828125 8.875 -8.300781 8.875 -8.90625 C 8.875 -9.53125 8.664062 -10.007812 8.25 -10.34375 C 7.84375 -10.6875 7.265625 -10.859375 6.515625 -10.859375 L 3.34375 -10.859375 Z M 3.34375 -6.984375 "/></g></g><g style="fill:#333333;fill-opacity:1;"><g transform="translate(410.13636, 364.86128)"><path style="stroke:none" d=""/></g></g><g style="fill:#333333;fill-opacity:1;"><g transform="translate(419.225855, 364.86128)"><path style="stroke:none" d="M 0.296875 0 L 5.359375 -12.3125 L 6.796875 -12.3125 L 11.859375 0 L 10.234375 0 L 9.078125 -2.796875 L 3.078125 -2.796875 L 1.953125 0 Z M 3.671875 -4.234375 L 8.484375 -4.234375 L 6.078125 -10.140625 Z M 3.671875 -4.234375 "/></g></g><g style="fill:#333333;fill-opacity:1;"><g transform="translate(436.121432, 364.86128)"><path style="stroke:none" d="M 1.796875 0 L 1.796875 -12.3125 L 5.953125 -12.3125 C 6.878906 -12.3125 7.6875 -12.140625 8.375 -11.796875 C 9.0625 -11.453125 9.59375 -10.972656 9.96875 -10.359375 C 10.34375 -9.742188 10.53125 -9.015625 10.53125 -8.171875 C 10.53125 -7.328125 10.34375 -6.597656 9.96875 -5.984375 C 9.59375 -5.367188 9.0625 -4.890625 8.375 -4.546875 C 7.6875 -4.210938 6.878906 -4.046875 5.953125 -4.046875 L 3.34375 -4.046875 L 3.34375 0 Z M 3.34375 -5.484375 L 5.921875 -5.484375 C 7.941406 -5.484375 8.953125 -6.375 8.953125 -8.15625 C 8.953125 -9.9375 7.941406 -10.828125 5.921875 -10.828125 L 3.34375 -10.828125 Z M 3.34375 -5.484375 "/></g></g><g style="fill:#333333;fill-opacity:1;"><g transform="translate(452.085205, 364.86128)"><path style="stroke:none" d="M 1.796875 0 L 1.796875 -12.3125 L 5.953125 -12.3125 C 6.878906 -12.3125 7.6875 -12.140625 8.375 -11.796875 C 9.0625 -11.453125 9.59375 -10.972656 9.96875 -10.359375 C 10.34375 -9.742188 10.53125 -9.015625 10.53125 -8.171875 C 10.53125 -7.328125 10.34375 -6.597656 9.96875 -5.984375 C 9.59375 -5.367188 9.0625 -4.890625 8.375 -4.546875 C 7.6875 -4.210938 6.878906 -4.046875 5.953125 -4.046875 L 3.34375 -4.046875 L 3.34375 0 Z M 3.34375 -5.484375 L 5.921875 -5.484375 C 7.941406 -5.484375 8.953125 -6.375 8.953125 -8.15625 C 8.953125 -9.9375 7.941406 -10.828125 5.921875 -10.828125 L 3.34375 -10.828125 Z M 3.34375 -5.484375 "/></g></g><g style="fill:#333333;fill-opacity:1;"><g transform="translate(37.920852, 329.714075)"><path style="stroke:none" d="M 39.453125 0 L 39.453125 -22.15625 L 13.359375 -22.15625 L 13.359375 0 L 7.171875 0 L 7.171875 -49.21875 L 13.359375 -49.21875 L 13.359375 -28.0625 L 39.453125 -28.0625 L 39.453125 -49.21875 L 45.640625 -49.21875 L 45.640625 0 Z M 39.453125 0 "/></g></g><g style="fill:#333333;fill-opacity:1;"><g transform="translate(90.726285, 329.714075)"><path style="stroke:none" d="M 29.53125 0.921875 C 24.5625 0.921875 20.15625 -0.164062 16.3125 -2.34375 C 12.46875 -4.53125 9.46875 -7.546875 7.3125 -11.390625 C 5.15625 -15.234375 4.078125 -19.640625 4.078125 -24.609375 C 4.078125 -29.628906 5.15625 -34.046875 7.3125 -37.859375 C 9.46875 -41.679688 12.46875 -44.679688 16.3125 -46.859375 C 20.15625 -49.046875 24.5625 -50.140625 29.53125 -50.140625 C 34.550781 -50.140625 38.96875 -49.046875 42.78125 -46.859375 C 46.601562 -44.679688 49.601562 -41.679688 51.78125 -37.859375 C 53.96875 -34.046875 55.0625 -29.628906 55.0625 -24.609375 C 55.0625 -19.640625 53.96875 -15.234375 51.78125 -11.390625 C 49.601562 -7.546875 46.601562 -4.53125 42.78125 -2.34375 C 38.96875 -0.164062 34.550781 0.921875 29.53125 0.921875 Z M 10.40625 -24.609375 C 10.40625 -20.816406 11.210938 -17.46875 12.828125 -14.5625 C 14.453125 -11.65625 16.703125 -9.378906 19.578125 -7.734375 C 22.460938 -6.097656 25.78125 -5.28125 29.53125 -5.28125 C 33.332031 -5.28125 36.660156 -6.097656 39.515625 -7.734375 C 42.378906 -9.378906 44.617188 -11.65625 46.234375 -14.5625 C 47.847656 -17.46875 48.65625 -20.816406 48.65625 -24.609375 C 48.65625 -28.453125 47.847656 -31.816406 46.234375 -34.703125 C 44.617188 -37.585938 42.378906 -39.847656 39.515625 -41.484375 C 36.660156 -43.128906 33.332031 -43.953125 29.53125 -43.953125 C 25.78125 -43.953125 22.460938 -43.128906 19.578125 -41.484375 C 16.703125 -39.847656 14.453125 -37.585938 12.828125 -34.703125 C 11.210938 -31.816406 10.40625 -28.453125 10.40625 -24.609375 Z M 10.40625 -24.609375 "/></g></g><g style="fill:#333333;fill-opacity:1;"><g transform="translate(149.789632, 329.714075)"><path style="stroke:none" d="M 7.171875 0 L 7.171875 -49.21875 L 12.9375 -49.21875 L 32.28125 -20.046875 L 51.46875 -49.21875 L 57.234375 -49.21875 L 57.234375 0 L 51.046875 0 L 51.046875 -37.625 L 34.734375 -13.078125 L 29.671875 -13.078125 L 13.359375 -37.6875 L 13.359375 0 Z M 7.171875 0 "/></g></g><g style="fill:#333333;fill-opacity:1;"><g transform="translate(214.196802, 329.714075)"><path style="stroke:none" d="M 7.171875 0 L 7.171875 -49.21875 L 37.0625 -49.21875 L 37.0625 -43.453125 L 13.359375 -43.453125 L 13.359375 -27.921875 L 35.296875 -27.921875 L 35.296875 -22.21875 L 13.359375 -22.21875 L 13.359375 -5.765625 L 37.828125 -5.765625 L 37.828125 0 Z M 7.171875 0 "/></g></g><g style="fill:#333333;fill-opacity:1;"><g transform="translate(256.595833, 329.714075)"><path style="stroke:none" d="M 7.171875 0 L 7.171875 -49.21875 L 25.953125 -49.21875 C 29.367188 -49.21875 32.34375 -48.570312 34.875 -47.28125 C 37.40625 -46 39.375 -44.1875 40.78125 -41.84375 C 42.1875 -39.5 42.890625 -36.6875 42.890625 -33.40625 C 42.890625 -29.414062 41.859375 -26.117188 39.796875 -23.515625 C 37.734375 -20.921875 34.898438 -19.175781 31.296875 -18.28125 L 43.671875 0 L 36.21875 0 L 24.1875 -17.65625 L 13.359375 -17.65625 L 13.359375 0 Z M 13.359375 -23.5625 L 25.25 -23.5625 C 28.851562 -23.5625 31.640625 -24.414062 33.609375 -26.125 C 35.578125 -27.832031 36.5625 -30.257812 36.5625 -33.40625 C 36.5625 -36.539062 35.578125 -38.972656 33.609375 -40.703125 C 31.640625 -42.441406 28.851562 -43.3125 25.25 -43.3125 L 13.359375 -43.3125 Z M 13.359375 -23.5625 "/></g></g><g style="fill:#333333;fill-opacity:1;"><g transform="translate(304.479324, 329.714075)"><path style="stroke:none" d="M 29.53125 0.921875 C 24.5625 0.921875 20.15625 -0.164062 16.3125 -2.34375 C 12.46875 -4.53125 9.46875 -7.546875 7.3125 -11.390625 C 5.15625 -15.234375 4.078125 -19.640625 4.078125 -24.609375 C 4.078125 -29.628906 5.15625 -34.046875 7.3125 -37.859375 C 9.46875 -41.679688 12.46875 -44.679688 16.3125 -46.859375 C 20.15625 -49.046875 24.5625 -50.140625 29.53125 -50.140625 C 34.550781 -50.140625 38.96875 -49.046875 42.78125 -46.859375 C 46.601562 -44.679688 49.601562 -41.679688 51.78125 -37.859375 C 53.96875 -34.046875 55.0625 -29.628906 55.0625 -24.609375 C 55.0625 -19.640625 53.96875 -15.234375 51.78125 -11.390625 C 49.601562 -7.546875 46.601562 -4.53125 42.78125 -2.34375 C 38.96875 -0.164062 34.550781 0.921875 29.53125 0.921875 Z M 10.40625 -24.609375 C 10.40625 -20.816406 11.210938 -17.46875 12.828125 -14.5625 C 14.453125 -11.65625 16.703125 -9.378906 19.578125 -7.734375 C 22.460938 -6.097656 25.78125 -5.28125 29.53125 -5.28125 C 33.332031 -5.28125 36.660156 -6.097656 39.515625 -7.734375 C 42.378906 -9.378906 44.617188 -11.65625 46.234375 -14.5625 C 47.847656 -17.46875 48.65625 -20.816406 48.65625 -24.609375 C 48.65625 -28.453125 47.847656 -31.816406 46.234375 -34.703125 C 44.617188 -37.585938 42.378906 -39.847656 39.515625 -41.484375 C 36.660156 -43.128906 33.332031 -43.953125 29.53125 -43.953125 C 25.78125 -43.953125 22.460938 -43.128906 19.578125 -41.484375 C 16.703125 -39.847656 14.453125 -37.585938 12.828125 -34.703125 C 11.210938 -31.816406 10.40625 -28.453125 10.40625 -24.609375 Z M 10.40625 -24.609375 "/></g></g><g style="fill:#333333;fill-opacity:1;"><g transform="translate(363.54267, 329.714075)"><path style="stroke:none" d="M 29.53125 0.921875 C 24.5625 0.921875 20.15625 -0.164062 16.3125 -2.34375 C 12.46875 -4.53125 9.46875 -7.546875 7.3125 -11.390625 C 5.15625 -15.234375 4.078125 -19.640625 4.078125 -24.609375 C 4.078125 -29.628906 5.15625 -34.046875 7.3125 -37.859375 C 9.46875 -41.679688 12.46875 -44.679688 16.3125 -46.859375 C 20.15625 -49.046875 24.5625 -50.140625 29.53125 -50.140625 C 34.550781 -50.140625 38.96875 -49.046875 42.78125 -46.859375 C 46.601562 -44.679688 49.601562 -41.679688 51.78125 -37.859375 C 53.96875 -34.046875 55.0625 -29.628906 55.0625 -24.609375 C 55.0625 -19.640625 53.96875 -15.234375 51.78125 -11.390625 C 49.601562 -7.546875 46.601562 -4.53125 42.78125 -2.34375 C 38.96875 -0.164062 34.550781 0.921875 29.53125 0.921875 Z M 10.40625 -24.609375 C 10.40625 -20.816406 11.210938 -17.46875 12.828125 -14.5625 C 14.453125 -11.65625 16.703125 -9.378906 19.578125 -7.734375 C 22.460938 -6.097656 25.78125 -5.28125 29.53125 -5.28125 C 33.332031 -5.28125 36.660156 -6.097656 39.515625 -7.734375 C 42.378906 -9.378906 44.617188 -11.65625 46.234375 -14.5625 C 47.847656 -17.46875 48.65625 -20.816406 48.65625 -24.609375 C 48.65625 -28.453125 47.847656 -31.816406 46.234375 -34.703125 C 44.617188 -37.585938 42.378906 -39.847656 39.515625 -41.484375 C 36.660156 -43.128906 33.332031 -43.953125 29.53125 -43.953125 C 25.78125 -43.953125 22.460938 -43.128906 19.578125 -41.484375 C 16.703125 -39.847656 14.453125 -37.585938 12.828125 -34.703125 C 11.210938 -31.816406 10.40625 -28.453125 10.40625 -24.609375 Z M 10.40625 -24.609375 "/></g></g><g style="fill:#333333;fill-opacity:1;"><g transform="translate(422.606017, 329.714075)"><path style="stroke:none" d="M 7.171875 0 L 7.171875 -49.21875 L 12.9375 -49.21875 L 32.28125 -20.046875 L 51.46875 -49.21875 L 57.234375 -49.21875 L 57.234375 0 L 51.046875 0 L 51.046875 -37.625 L 34.734375 -13.078125 L 29.671875 -13.078125 L 13.359375 -37.6875 L 13.359375 0 Z M 7.171875 0 "/></g></g><g clip-rule="nonzero" clip-path="url(#1988078ba2)"><g clip-rule="nonzero" clip-path="url(#7d65393304)"><path style=" stroke:none;fill-rule:nonzero;fill:#467404;fill-opacity:1;" d="M 261.277344 113.28125 L 451.398438 113.28125 L 451.398438 245.183594 L 261.277344 245.183594 Z M 261.277344 113.28125 "/></g></g><g clip-rule="nonzero" clip-path="url(#45cad2dada)"><g clip-rule="nonzero" clip-path="url(#b95ffc0dd7)"><path style=" stroke:none;fill-rule:nonzero;fill:#467404;fill-opacity:1;" d="M 207.214844 6.035156 L 505.722656 6.035156 L 505.722656 161.992188 L 207.214844 161.992188 Z M 207.214844 6.035156 "/></g></g><path style="fill:none;stroke-width:37;stroke-linecap:round;stroke-linejoin:miter;stroke:#467404;stroke-opacity:1;stroke-miterlimit:4;" d="M 18.497438 18.499588 L 63.894968 18.499588 " transform="matrix(0,0.746444,-0.746444,0,436.387034,38.602853)"/><g clip-rule="nonzero" clip-path="url(#67cf7beeb6)"><g clip-rule="nonzero" clip-path="url(#e88b111026)"><path style=" stroke:none;fill-rule:nonzero;fill:#7dd111;fill-opacity:1;" d="M 310.488281 180.417969 L 356.421875 180.417969 L 356.421875 245.191406 L 310.488281 245.191406 Z M 310.488281 180.417969 "/></g></g><g clip-rule="nonzero" clip-path="url(#b9d353376f)"><path style=" stroke:none;fill-rule:nonzero;fill:#7dd111;fill-opacity:1;" d="M 310.488281 212.800781 L 356.40625 212.800781 L 356.40625 245.183594 L 310.488281 245.183594 Z M 310.488281 212.800781 "/></g><g clip-rule="nonzero" clip-path="url(#1ab613dcea)"><g clip-rule="nonzero" clip-path="url(#12f4ed5f74)"><path style=" stroke:none;fill-rule:nonzero;fill:#5ea400;fill-opacity:1;" d="M 184.925781 137.847656 L 339.636719 137.847656 L 339.636719 245.183594 L 184.925781 245.183594 Z M 184.925781 137.847656 "/></g></g><g clip-rule="nonzero" clip-path="url(#d1c02af931)"><g clip-rule="nonzero" clip-path="url(#2491965837)"><path style=" stroke:none;fill-rule:nonzero;fill:#5ea400;fill-opacity:1;" d="M 140.929688 50.578125 L 383.84375 50.578125 L 383.84375 177.488281 L 140.929688 177.488281 Z M 140.929688 50.578125 "/></g></g><path style="fill:none;stroke-width:30;stroke-linecap:round;stroke-linejoin:miter;stroke:#5ea400;stroke-opacity:1;stroke-miterlimit:4;" d="M 15.000365 14.997563 L 52.052315 14.997563 " transform="matrix(0,0.749476,-0.749476,0,327.380932,77.077905)"/><g clip-rule="nonzero" clip-path="url(#4f960448f0)"><g clip-rule="nonzero" clip-path="url(#85b996f222)"><path style=" stroke:none;fill-rule:nonzero;fill:#467404;fill-opacity:1;" d="M 224.96875 192.480469 L 262.347656 192.480469 L 262.347656 245.191406 L 224.96875 245.191406 Z M 224.96875 192.480469 "/></g></g><g clip-rule="nonzero" clip-path="url(#4c7d341ec6)"><path style=" stroke:none;fill-rule:nonzero;fill:#467404;fill-opacity:1;" d="M 224.96875 218.832031 L 262.335938 218.832031 L 262.335938 245.183594 L 224.96875 245.183594 Z M 224.96875 218.832031 "/></g><g clip-rule="nonzero" clip-path="url(#7a49259e69)"><g clip-rule="nonzero" clip-path="url(#3b50d7350a)"><path style=" stroke:none;fill-rule:nonzero;fill:#7dd111;fill-opacity:1;" d="M 68.398438 125.566406 L 240.816406 125.566406 L 240.816406 245.183594 L 68.398438 245.183594 Z M 68.398438 125.566406 "/></g></g><g clip-rule="nonzero" clip-path="url(#de8c26ce0d)"><g clip-rule="nonzero" clip-path="url(#cdff617b8b)"><path style=" stroke:none;fill-rule:nonzero;fill:#7dd111;fill-opacity:1;" d="M 19.371094 28.308594 L 290.082031 28.308594 L 290.082031 169.738281 L 19.371094 169.738281 Z M 19.371094 28.308594 "/></g></g><path style="fill:none;stroke-width:36;stroke-linecap:round;stroke-linejoin:miter;stroke:#7dd111;stroke-opacity:1;stroke-miterlimit:4;" d="M 17.999289 17.99943 L 56.72325 17.99943 " transform="matrix(0,0.75,-0.75,0,228.120666,57.840378)"/><g clip-rule="nonzero" clip-path="url(#8012f4c85c)"><g clip-rule="nonzero" clip-path="url(#7e5cf4ebef)"><path style=" stroke:none;fill-rule:nonzero;fill:#467404;fill-opacity:1;" d="M 113.027344 186.449219 L 154.683594 186.449219 L 154.683594 245.191406 L 113.027344 245.191406 Z M 113.027344 186.449219 "/></g></g><g clip-rule="nonzero" clip-path="url(#f25d764cbe)"><path style=" stroke:none;fill-rule:nonzero;fill:#467404;fill-opacity:1;" d="M 113.027344 215.816406 L 154.667969 215.816406 L 154.667969 245.183594 L 113.027344 245.183594 Z M 113.027344 215.816406 "/></g></g></svg>